<svg width="100" height="100" viewBox="0 0 100 100" fill="none" xmlns="http://www.w3.org/2000/svg">
<g clip-path="url(#clip0_450_4)">
<path d="M24.3333 0H5C2.23858 0 0 2.23858 0 5V28.2527C0 31.0141 2.23858 33.2527 5 33.2527H24.3333C27.0947 33.2527 29.3333 31.0141 29.3333 28.2527V5C29.3333 2.23858 27.0947 0 24.3333 0Z" fill="white"/>
<path d="M75.3333 66.7473H56C53.2386 66.7473 51 68.9859 51 71.7473V95C51 97.7614 53.2386 100 56 100H75.3333C78.0947 100 80.3333 97.7614 80.3333 95V71.7473C80.3333 68.9859 78.0947 66.7473 75.3333 66.7473Z" fill="white"/>
<path d="M94.9998 0H75.6665C72.9051 0 70.6665 2.23858 70.6665 5V28.2527C70.6665 31.0141 72.9051 33.2527 75.6665 33.2527H94.9998C97.7612 33.2527 99.9998 31.0141 99.9998 28.2527V5C99.9998 2.23858 97.7612 0 94.9998 0Z" fill="white"/>
<path d="M28.1391 28.1591L23 32.8015L48.554 68.2486L53.6931 63.6062L28.1391 28.1591Z" fill="white"/>
<path d="M28.1195 10.5805L28 18.1367L65.952 18.9078L66.0714 11.3516L28.1195 10.5805Z" fill="white"/>
</g>
<defs>
<clipPath id="clip0_450_4">
<rect width="100" height="100" fill="white"/>
</clipPath>
</defs>
</svg>
