<svg version="1.2" xmlns="http://www.w3.org/2000/svg" viewBox="0 0 1545 701" width="1545" height="701">
	<title>394b20d1-e5c7-4fba-842d-b7b9a9256fb5-31-pdf-svg</title>
	<defs>
		<clipPath clipPathUnits="userSpaceOnUse" id="cp1">
			<path d="m-1409.92-8717.96h7409.07v10476.57h-7409.07z"/>
		</clipPath>
	</defs>
	<style>
		.s0 { fill: #a8d59e } 
		.s1 { fill: #73c169 } 
		.s2 { fill: #54b949 } 
	</style>
	<g id="Clip-Path: Page 1" clip-path="url(#cp1)">
		<g id="Page 1">
			<path id="Path 1" class="s0" d="m623.1 508.1c-53.5 92.7-154.9 156.2-270.6 156.2-173.6 0-313.6-141.2-313.6-314.2 0-173.6 140-312.9 313.6-312.9 111.9 0 210.2 57.9 266.2 146.2h39.8c-59.1-108.9-174.2-182.9-307.3-182.9-193.5 0-350.2 156.1-350.2 349.6 0 193.5 156.7 350.3 350.2 350.3 136.2 0 255.1-78.4 312.3-192.3z"/>
			<path id="Path 2" class="s1" d="m722 508.1c-54.8 92.7-155.5 156.2-271.3 156.2-172.9 0-312.9-141.2-312.9-314.2 0-173.6 140-312.9 312.9-312.9 112 0 210.9 57.9 266.3 146.2h40.4c-59.7-108.9-175.4-182.9-308.5-182.9-192.2 0-349.6 156.1-349.6 349.6 0 193.5 157.4 350.3 349.6 350.3 136.8 0 255.7-78.4 312.9-192.3z"/>
			<path id="Path 3" fill-rule="evenodd" class="s2" d="m1448.6 352h23c13.7-113.9-64.1-103.3-64.1-103.3v156.2h-207.1l1.2-52.3h48.5c-12.4-70.3-62.8-59.7-62.8-59.7v112h-268.1v-51h113.8c-1.8-82.2-113.8-60.4-113.8-60.4v-52.9c161.1-16.1 164.8 112 164.8 112h51.7v-112c168.6-14.3 163.6 112 163.6 112h56.6v-155.5c194.1-12.5 161.7 155.5 161.7 155.5h21.2v52.3h-90.2zm-581.1-112v164.8c0 0-69 9.4-115-21.1v21.1h-296.2v-113.2c0 0-41.6-8.7-64.7 61.6h48.6v52.3h-97.7c0 0-30.5-182.9 163.6-164.3v112.6h200.3v-112.6h47.9c0 0-19.3 113.9 64.1 113.9v-115.1zm-8.7 268.1c-57.2 113.9-176.1 192.9-311.7 192.9-193.4 0-350.8-157.4-350.8-350.9 0-193.5 157.4-349.6 350.8-349.6 131.9 0 247.6 74 307.3 182.9h-40.4c-55.4-87.7-154.3-146.2-266.3-146.2-173.5 0-312.9 140-312.9 312.9 0 173.6 139.4 314.2 312.9 314.2 115.8 0 217.8-63.5 271.3-156.2zm-108.3-83.3h51v53.5h-51zm65.4 0h51.6v53.5h-51.6zm-426.8-255.7h51.6v53.5h-51.6zm65.9-0.6h51.7v54.1h-51.7zm135.7 70.9h51.6v53.5h-51.6zm403.7 249.5h-7.5c-1.2-0.7-1.8-0.7-3.1-1.9l-0.6-1.9c-1.2 1.3-3.1 3.1-3.7 3.8h-31.1c-0.7 0-1.9 0-3.8-0.7q-3.1-1.2-3.1-3.1c-0.6-1.8-0.6-2.4-0.6-3.7v-1.9c0.6-3.7 1.9-6.8 1.9-7.4 1.2-1.9 1.8-3.1 3.1-3.8h0.6v1.9l-0.6 0.6c0 1.9-1.3 3.1-1.3 5v0.6c1.3 1.9 3.8 5 5 5h32.4c0 0 0-1.9 1.2-3.7v-3.1l5.6-5.6c0 1.2 0 3.1-1.2 4.9v4.4c0 1.2 3.1 3.1 3.7 3.1h1.2v6.8h1.9zm-1.9-7.4v-0.6h17.4c0 0 0.7-0.7 0-2.5 0-1.3 0-2.5 0.7-3.1q0-1.3 6.2-5.6v6.2c-1.3 1.2-1.3 2.5-1.3 2.5 0 1.8 1.9 2.5 5 2.5h1.9v7.4h-7.5c-1.8-0.6-3.1-1.8-4.3-3.7l-2.5 3.7h-13.7v-6.8zm-14.3-20.5c-1.3 2.4-3.1 3.1-5 4.9l-5.6-2.5h-1.2c-0.7 0-2.5 2.5-3.8 2.5 0 0 0-0.6-0.6-0.6-1.9-1.2-3.7-1.2-5.6-3.1 2.5-3.1 4.4-3.7 5.6-3.7-1.2 0 0.6 0.6 3.7 1.8l1.9 0.7c1.3-0.7 1.9-1.9 3.7-2.5zm36.7-1.3c-1.2 0-3.1 0.6-4.9 3.1h-1.3c0 0-1.8 0-2.5-1.2-3.1-1.9-3.7-3.1-3.7-3.1 0-0.6 0-0.6 0.6-1.9 1.9-0.6 3.1-1.9 5-2.5 0-1.2 0.6-1.2 0.6-1.2q0 0 3.1 3.1c3.1 0.6 3.8 1.9 3.8 2.5 0 0-0.7 0-0.7 1.2z"/>
			<path id="Path 4" fill-rule="evenodd" class="s2" d="m1056 488.9c-0.6 0-1.8 1.2-1.8 1.8-1.3 1.9-1.3 1.9-1.9 3.1l-18-8.7q-1.9 0-3.1 2.5c0 1.3-0.7 1.3-1.9 1.3h-9.3v-7.5h12.4c0 0 0.6-1.3 2.5-1.9l1.9-4.3c1.2-1.9 3.7-2.5 6.8-4.4 3.1-1.2 5.6-1.9 6.8-1.9 1.9 0 2.5 0 2.5 0.7v3.7c2.5 4.4 4.4 6.8 6.2 8.1h145.6c0 0 0.6-1.3 0.6-1.9l1.3-3.1c0.6-1.9 3.7-3.7 6.2-6.8 0 1.2 0 3.1-0.6 4.9-1.3 3.8-1.9 5-1.9 5.6 0.6 1.3 2.5 1.3 3.7 1.3h7.5c0-1.3 0-1.9 1.3-3.7 0.6-1.9 3.7-5 6.8-6.3l-1.9 8.1v1.9h6.3v-3.1c-0.7-0.6-0.7-1.9-0.7-1.9q0 0 2.5-3.1c1.9-1.9 3.1-2.5 4.4-3.7v11.8c0 0.6 0 1.9-1.3 3.7-1.8 3.1-1.8 3.8-1.8 3.8-1.3 0-1.3 1.2-1.3 1.2l-12.4-1.2c0-0.7-0.6-0.7-0.6-0.7 0 0-1.9 0.7-3.2 0.7h-11.1c-1.3 0-3.2-0.7-3.2-1.9-1.8 1.2-3.7 1.9-4.9 1.9h-7.5v1.2h-133.1v-1.2zm-5-6.9c0-1.9 0-2.5-0.6-3.7-1.3-1.9-1.9-1.9-3.8-1.9-3.1 0-4.9 0-6.8 1.9l5.6 3.1c1.9 0.6 3.7 1.9 5 1.9 0.6 0 0.6-1.3 0.6-1.3zm207.1-37.9c-3.1 0-6.8 1.8-9.3 3.7h-1.2v-1.2c0 0 1.2-0.7 3.1-1.9l-5-1.9c0-0.6 0-0.6 0.6-2.5 1.3-1.8 3.1-4.3 6.3-4.3 0-0.6 0.6-0.6 0.6-0.6 1.8 0 3.1 0.6 3.1 1.8 0 0 0 1.3-1.3 3.1-0.6-1.2-0.6-1.2-1.8-1.8h-0.6c-1.9 0-3.8 0.6-3.8 1.8 0 0.7 1.9 0.7 5.6 1.9 0 0 1.9-1.2 5.6-1.2 0 1.2-0.6 1.8-1.9 3.1zm3.2 30.4c0 5.6-1.9 10.6-5 14.4l-3.7-29.9c0 0 0.6-1.9 2.4-3.7 1.3-2.5 3.1-3.8 3.1-5zm43-20.5c0 0-1.9 0.6-2.5 2.4-1.9 1.3-1.9 1.9-3.1 1.9 0 0-3.1-0.6-5.6-2.5-3.1 1.9-3.8 2.5-3.8 2.5-1.2 0-3.1-0.6-6.8-3.7l5-3.8q3.7 3.2 5.6 3.2c0 0 1.8-1.3 3.7-3.2zm3.7 35.5c-0.6-1.2-0.6-1.2-1.8-1.9 0-1.2 0-3.7-0.6-5.6q-1.9 0-3.2 2.5c-1.2 1.9-3.1 3.1-3.7 3.1l-13.7-1.8v-1.3q0 0 3.1-8.7c0.7-0.6 2.5-2.5 6.9-4.3 2.5-1.3 4.3-1.9 6.2-4.4l-0.6-1.9c0 0 1.8-1.8 5-6.2 0.6 4.4 2.4 12.5 4.3 21.8 0 1.2 1.3 1.2 3.7 1.2h120.1l-12.4-8.7-1.3 0.7c-0.6 0-1.8-0.7-2.5-1.9-3.1-2.5-4.9-5-4.9-5 0 0 0.6-2.5 3.7-9.3l26.7-7.5c0 2.5-0.6 5.6-1.8 7.5l-19.9 5.6c3.7 1.8 6.8 5 9.3 6.8 3.7 3.1 7.5 5.6 9.9 8.7 0.7 0.7 0.7 0.7 0.7 1.9l-3.1 8.7h-25.5v0.6h-99.6v-0.6zm-3.7-10.6v-1.2c0-0.6 0-3.7-1.3-7.5-0.6 1.3-1.8 1.3-1.8 1.9-0.6 1.2-1.9 3.1-3.8 3.7l-4.9 1.9c3.7 1.2 5.6 1.2 6.8 1.2zm174.2 10.6c-0.6 0-0.6 0-1.9-1.2-0.6 3.1-3.1 6.2-5.6 9.9-3.7 4.4-8.1 7.5-11.8 7.5-1.9 0-4.3-0.6-9.3-3.1-3.8-1.9-6.9-2.5-7.5-3.8v-0.6h0.6c0 0 1.3 0 3.1 0.6 2.5 1.3 3.8 1.3 5.6 1.3 3.2 0 6.9-1.9 11.2-5 6.3-3.7 8.1-6.8 8.1-8.7 0-0.6-1.8-3.7-5.6-7.5l5.6-6.8c3.8 5 8.7 8.7 13.1 9.9h20.5c0.6 0 0.6-1.2 1.9-2.4v-2.5c0.6-1.9 3.7-3.8 7.5-6.9 0 1.3-0.7 3.1-0.7 5-2.5 3.7-3.1 4.4-3.1 5.6 1.9 1.2 3.1 1.2 3.8 1.2h8.7c0-1.2 0.6-2.4 1.8-4.9 0 0 1.9-1.9 5.6-5l-1.8 7.5v2.4h8c-1.2-3.1-1.2-4.9-1.2-4.9 0 0 1.9-3.1 5.6-6.9v13.7q-1.2 2.5-2.5 5.6h-12.4l-1.3-1.2-1.8 1.2h-13.7c-1.9 0-3.8-1.2-3.8-1.9-1.8 0.7-2.4 1.9-3.7 1.9h-7.5v0.6h-10.5v-0.6zm57.2-26.1c0 1.2-0.6 1.8-1.9 3.1l-1.8 3.1c-0.7-1.2-3.1-2.5-6.9-4.4-0.6 0-1.8 1.3-2.5 1.9-1.2 1.3-1.8 2.5-1.8 2.5 0 0-1.9-1.2-4.4-2.5-0.6-0.6-2.5-0.6-3.7-1.9 3.1-2.4 5-4.3 5-4.3 0 0 1.2 0.6 3.1 1.9 2.5 0.6 3.7 0.6 3.7 0.6 0 0 0.6-0.6 4.4-2.5zm-6.3-6.2c-4.3 3.1-4.9 4.3-4.9 4.3 0 0-3.1-1.2-5.6-3.1 0-1.9 1.8-3.1 4.3-5zm-563 67.2l-0.6 9.4h-3.1v-3.8c-0.6-0.6-1.9-0.6-3.1-0.6-0.6-1.2-1.9-1.2-4.4-1.2-3.1 0-5.6 1.2-8.1 3.1-2.4 2.5-3.7 5.6-3.7 8.7 0 3.7 1.3 6.2 3.1 9.3q3.1 3.1 8.7 3.1h5.6c1.9-1.2 3.8-1.2 5.6-1.8v6.2c-1.8 1.2-3.7 1.2-5.6 1.8-3.1 0-4.9 1.3-6.8 1.3-6.9 0-11.2-1.9-14.9-5.6-4.4-3.1-6.3-8.1-6.3-13.7 0-5.6 1.9-9.3 6.3-13.1 3.7-4.3 9.3-6.2 16.1-6.2 1.9 0 3.8 0 5.6 1.3q4.7 0 5.6 1.8zm6.2-1.8h8.1v6.8h-8.1zm8.1 9.3v26.8h-8.1v-25.5zm21.8 21.7l-5.6 5.6c-3.1-0.6-5-2.4-6.8-4.3-1.3-1.3-1.9-4.4-1.9-6.2v-11.2h-3.1v-5h3.1v-8.7l8.7-0.6v9.3h4.4v5h-4.4v9.3c0 1.3 0.6 3.1 1.9 3.7 0.6 2.5 1.9 3.1 3.7 3.1zm34.2-19.2l-13 23c-1.3 3.7-3.1 5.6-3.8 6.8-1.2 1.3-1.8 1.9-4.3 1.9h-9.3c1.8 0 3.1-0.6 4.9-3.7 2.5-1.9 3.8-3.8 4.4-5l-13.1-23 7.5-2.5 9.9 18 10.6-18zm45.4-10.6l-0.6 9.3h-3.1v-3.7c-0.6-1.2-1.9-1.2-2.5-1.2-1.2-0.7-3.1-0.7-5-0.7q-4.3 0-8.7 3.1-3.1 3.8-3.1 8.1c0 4.4 1.3 6.9 3.1 10q3.1 2.5 8.7 2.5h5.6c1.9-0.6 3.8-0.6 5-1.9v6.8c-1.2 1.3-3.1 1.3-5.6 1.9-1.9 0-4.3 1.3-6.2 1.3-6.2 0-11.2-1.9-14.9-6.3-3.8-2.4-5.6-7.4-5.6-13 0-5.6 1.8-9.4 5.6-13.7 3.7-3.7 9.3-5.6 16.1-5.6 1.9 0 3.8 0 5.6 1.2q2.8 0 5.6 1.9z"/>
			<path id="Path 5" fill-rule="evenodd" class="s2" d="m1118.2 547.3h-23c1.3 1.9 1.9 3.1 3.1 3.8q2.8 1.8 5.6 1.8c1.9 0 3.8 0 5.6-0.6 1.9 0 3.8-1.2 5-1.9v6.3c-1.2 1.2-3.1 1.8-5 1.8-1.8 0-3.7 1.3-5.6 1.3-5.6 0-9.3-1.9-12.4-3.8-3.1-3.1-5-6.8-5-10.5 0-3.8 1.9-7.5 5-10.6 3.1-1.9 6.8-3.7 11.2-3.7 5 0 8.7 1.8 11.8 4.3 3.1 3.1 3.7 6.9 3.7 11.8zm-7.4-3.7c-1.3-1.9-1.9-3.7-3.1-5-0.7-0.6-2.5-0.6-5-0.6-2.5 0-3.7 0-5.6 0.6-0.6 1.9-0.6 3.1-1.9 5zm60.4 14.9h-8.7v-16.1c0-0.7 0-1.9-0.7-2.5-1.2 0-1.8-1.3-3.7-1.3-1.2 0-1.9 0-4.3 1.3-0.7 0-1.9 0.6-1.9 1.8v16.8h-8.7v-16.1c0-0.7-0.6-1.9-1.9-2.5 0 0-1.9-1.3-2.5-1.3-1.8 0-3.1 0-5 1.3-0.6 0.6-1.8 0.6-1.8 1.8v16.8h-8.7v-25.5l8.7-1.2v3.1l3.7-1.9c1.3-1.2 1.9-1.2 3.1-1.2 0.6 0 1.9-0.6 2.5-0.6 3.1 0 4.4 0.6 6.2 1.8q1.3 0 2.5 2.5l5-2.5c1.2 0 1.9-1.2 3.1-1.2 1.9 0 2.5-0.6 3.7-0.6 2.5 0 5.6 0.6 7.5 2.4 1.3 1.9 1.9 4.4 1.9 6.9zm37.3-11.2h-23c0 1.9 1.2 2.5 3.1 3.7 0.6 0.6 2.5 1.9 5.6 1.9 1.2 0 3.1 0 5.6-1.3 1.9 0 3.1-0.6 5-1.8v6.8c-0.7 1.3-3.1 1.9-5.6 1.9-1.9 0-3.8 1.2-5 1.2-5.6 0-9.3-1.8-13.1-3.7-3.1-3.1-4.3-6.8-4.3-10.6 0-4.3 1.2-8.1 4.9-10.5 3.2-1.9 6.9-3.8 11.9-3.8 4.3 0 8.1 1.9 10.5 4.4 2.5 3.1 4.4 6.8 4.4 11.8zm-8.7-3.7c0-2.5-0.6-4.4-1.9-5-1.8-1.3-3.7-1.3-5.6-1.3-1.8 0-3.7 0-5 1.3-0.6 1.9-1.8 2.5-1.8 5zm42.3 14.9h-9.3v-16.2c0-1.2 0-1.8-1.3-3.1-1.2 0-1.9-0.6-3.7-0.6-1.3 0-3.1 0-3.8 0.6-1.2 1.3-1.8 1.3-1.8 1.9v17.4h-10v-25.5l10-1.3v3.2l2.5-1.9c1.8 0 3.1-1.3 3.7-1.3 1.2 0 1.9-1.2 3.1-1.2 3.7 0 5.6 1.2 7.5 3.1 1.8 1.9 3.1 3.7 3.1 6.9zm21.1-5l-6.8 5.6c-1.9-0.6-3.7-2.5-5.6-4.4-1.3-1.2-1.9-3.7-1.9-6.2v-11.2h-3.1v-5h3.1v-8.7l8.7-0.6v9.3h4.4v5h-4.4v9.3c0 1.3 0.7 3.1 1.9 4.4 0.6 1.9 1.9 2.5 3.7 2.5zm46.7-29.9l-1.9 10h-2.5v-3.8c0-1.2-1.2-1.2-3.1-1.2-1.2-0.6-1.8-0.6-3.7-0.6q-5.6 0-8.7 2.5c-3.1 3.1-3.7 5.6-3.7 8.7 0 3.7 0.6 6.8 2.4 9.3q3.1 3.1 8.7 3.1h5.6c2.5-0.6 4.4-0.6 6.3-1.9v6.9c-1.9 0.6-3.8 0.6-6.3 1.9-1.8 0-4.3 0.6-5.6 0.6-7.4 0-12.4-1.9-16.1-5.6-3.8-2.5-5.6-7.5-5.6-13.1 0-6.2 1.8-9.9 5.6-13.7 3.7-3.7 9.3-5.6 16.1-5.6 1.9 0 3.8 0 5.6 0.6 3.2 0 5 1.3 6.9 1.9zm35.4 21.2c0 3.7-0.6 8.1-3.7 10.5-3.1 1.9-6.8 3.8-12.4 3.8-5 0-8.7-1.9-11.2-3.8-3.1-2.4-4.4-6.8-4.4-10.5 0-3.8 1.3-7.5 4.4-9.4 2.5-3.1 6.2-4.9 11.2-4.9 5.6 0 9.3 1.8 12.4 3.7 3.1 3.1 3.7 6.2 3.7 10.6zm-8.7 0c0-1.9 0-3.8-1.8-5.6-0.6-1.9-2.5-3.1-4.4-3.1q-4.3 0-6.2 3.1c-1.9 1.2-1.9 3.1-1.9 5.6 0 1.8 0 3.7 1.9 6.2 1.2 1.9 3.1 1.9 6.2 1.9 1.9 0 3.8 0 4.4-1.9 1.8-1.3 1.8-3.1 1.8-6.2zm62.2 13.7h-8v-16.2c0-1.3 0-1.9-1.3-3.1-0.6 0-1.8-0.7-3.7-0.7-1.3 0-1.9 0-3.1 0.7-1.9 0-2.5 1.2-2.5 1.8v17.5h-8.7v-16.2c0-1.3-1.3-1.9-1.9-3.1 0 0-1.9-0.7-3.1-0.7-1.9 0-3.1 0-3.7 0.7-1.9 1.2-1.9 1.2-3.1 1.8v17.5h-8.8v-26.2l8.8-0.6v2.5l3.7-1.9c1.2-0.6 2.5-0.6 3.1-0.6 1.2 0 1.9-1.2 3.7-1.2 1.9 0 3.1 1.2 5 1.8 0.6 0 3.1 1.3 3.1 3.1l4.4-3.1c1.2 0 1.8-0.6 3.7-0.6 1.3 0 2.5-1.2 3.1-1.2 3.1 0 5.6 1.2 7.5 3.1 1.2 1.8 1.8 3.7 1.8 6.8zm37.4-13.7c0 3.8-0.6 6.9-3.8 9.4-2.4 3.1-6.8 4.3-10.5 4.3h-4.4c-1.2 0-1.9-1.2-3.1-1.2v8.7h-8.7v-33.6l8.7-1.3v2.5l3.7-1.2c1.3-1.3 1.3-1.3 1.9-1.3 1.2-0.6 1.9-0.6 3.1-0.6 3.7 0 7.5 1.9 9.3 3.7 3.2 3.2 3.8 6.9 3.8 10.6zm-8.1 0c0-1.8-1.3-3.7-2.5-5.6q-0.9-1.8-5.6-1.8h-2.5c-1.2 0.6-1.9 0.6-3.1 1.8v12.5c1.2 0 1.9 0.6 3.1 0.6h3.7c1.9 0 3.8 0 4.4-1.9 1.2-0.6 2.5-2.5 2.5-5.6zm45.4 9.4l-7.5 4.9c-0.6 0-1.8-0.6-1.8-1.8-1.3 0-1.9-1.3-1.9-1.9l-5.6 3.1h-1.9c-3.7 0-8.1-1.2-10.5-3.1-3.1-3.1-3.8-5.6-3.8-10.6 0-3.7 0.7-7.4 3.8-9.3 2.4-3.1 6.8-5 11.2-5 1.2 0 3.1 0.6 4.9 0.6 0.7 1.3 1.9 1.3 2.5 2.5l5-2.5 1.9 1.3v16.2c0 1.8 0 3.1 1.2 3.7 0 1.2 0.6 1.2 2.5 1.9zm-12.4-3.8v-11.2c-0.7 0-0.7-1.2-1.9-1.2-0.6-0.6-1.9-0.6-3.7-0.6-1.9 0-3.8 0.6-4.4 1.8-1.2 0.6-2.5 2.5-2.5 5.6 0 1.9 1.3 3.8 2.5 5 0.6 1.9 2.5 1.9 4.4 1.9h3.7c1.2 0 1.9-1.3 1.9-1.3zm45.4 8.1h-8.7v-16.8c0-0.6 0-1.9-1.3-2.5-0.6 0-1.8-1.2-3.7-1.2-1.9 0-2.5 0-3.7 1.2-0.7 0.6-1.9 0.6-2.5 1.9v17.4h-8.7v-26.1l8.7-1.3v3.1l3.7-1.8c0.6 0 1.9-1.3 2.5-1.3 1.9 0 3.1-0.6 3.7-0.6 3.1 0 6.2 0.6 6.9 3.1 1.8 1.9 3.1 3.8 3.1 6.2zm37.9-23.6l-13 23c-1.9 3.8-3.8 5.6-5 6.9-0.6 0.6-1.9 1.8-2.5 1.8h-10.6c1.9 0 3.7-1.2 5.6-4.3 1.9-1.9 2.5-3.8 3.7-4.4l-13.6-23 8-3.1 9.4 18 10.6-18z"/>
		</g>
	</g>
</svg>