<svg width="800" height="190" viewBox="0 0 800 190" fill="none" xmlns="http://www.w3.org/2000/svg">
<rect width="800" height="190" fill="white"/>
<g clip-path="url(#clip0_236_26)">
<mask id="mask0_236_26" style="mask-type:luminance" maskUnits="userSpaceOnUse" x="-275" y="-1823" width="1574" height="2228">
<path d="M-274.323 -1822.03H1298.61V404.799H-274.323V-1822.03Z" fill="white"/>
</mask>
<g mask="url(#mask0_236_26)">
<path d="M157.282 138.999C145.924 158.703 124.397 172.2 99.8346 172.2C62.9797 172.2 33.258 142.187 33.258 105.415C33.258 68.5161 62.9797 38.9074 99.8346 38.9074C123.591 38.9074 144.46 51.2142 156.348 69.9827H164.798C152.251 46.8356 127.815 31.1067 99.5586 31.1067C58.479 31.1067 25.2119 64.2863 25.2119 105.415C25.2119 146.544 58.479 179.873 99.5586 179.873C128.474 179.873 153.716 163.209 165.859 138.999H157.282Z" fill="#A8D59E"/>
<path d="M178.279 138.999C166.645 158.702 145.267 172.199 120.682 172.199C83.9762 172.199 54.2545 142.187 54.2545 105.415C54.2545 68.5159 83.9762 38.9072 120.682 38.9072C144.46 38.9072 165.456 51.214 177.217 69.9825H185.794C173.12 46.8354 148.557 31.1064 120.3 31.1064C79.4967 31.1064 46.0811 64.286 46.0811 105.415C46.0811 146.544 79.4967 179.873 120.3 179.873C149.343 179.873 174.585 163.208 186.728 138.999H178.279Z" fill="#73C169"/>
<path fill-rule="evenodd" clip-rule="evenodd" d="M332.534 105.819H337.417C340.326 81.6092 323.809 83.8622 323.809 83.8622V117.063H279.842L280.097 105.947H290.393C287.761 91.004 277.061 93.2571 277.061 93.2571V117.063H220.144V106.223H244.303C243.921 88.751 220.144 93.3846 220.144 93.3846V82.1405C254.345 78.7184 255.131 105.947 255.131 105.947H266.106V82.1405C301.9 79.101 300.838 105.947 300.838 105.947H312.854V72.8945C354.061 70.2375 347.183 105.947 347.183 105.947H351.684V117.063H332.534V105.819ZM209.168 82.013V117.042C209.168 117.042 194.52 119.04 184.754 112.557V117.042H121.871V92.9808C121.871 92.9808 113.04 91.1316 108.136 106.074H118.453V117.191H97.7118C97.7118 117.191 91.2367 78.3146 132.444 82.2681V106.202H174.967V82.2681H185.136C185.136 82.2681 181.039 106.478 198.744 106.478V82.013H209.168ZM207.321 138.999C195.178 163.208 169.935 180 141.148 180C100.089 180 66.6738 146.544 66.6738 105.415C66.6738 64.286 100.089 31.1064 141.148 31.1064C169.15 31.1064 193.713 46.8354 206.387 69.9825H197.81C186.049 51.3415 165.053 38.9072 141.275 38.9072C104.442 38.9072 74.8473 68.6647 74.8473 105.415C74.8473 142.314 104.442 172.199 141.275 172.199C165.859 172.199 187.514 158.702 198.872 138.999H207.321ZM184.329 121.293H195.156V132.665H184.329V121.293ZM198.214 121.293H209.168V132.665H198.214V121.293ZM107.605 66.943H118.559V78.3146H107.605V66.943ZM121.595 66.8154H132.571V78.3146H121.595V66.8154ZM150.404 81.8855H161.359V93.2571H150.404V81.8855ZM236.109 134.918H234.516C234.262 134.769 234.134 134.769 233.858 134.514L233.731 134.11C233.476 134.386 233.073 134.769 232.945 134.918H226.343C226.194 134.918 225.94 134.918 225.536 134.769C225.097 134.599 224.878 134.379 224.878 134.11C224.751 133.727 224.751 133.6 224.751 133.323V132.92C224.878 132.133 225.154 131.474 225.154 131.347C225.409 130.943 225.536 130.688 225.812 130.539H225.94V130.943L225.812 131.07C225.812 131.474 225.536 131.729 225.536 132.133V132.261C225.812 132.665 226.343 133.323 226.598 133.323H233.476C233.476 133.323 233.476 132.92 233.731 132.537V131.878L234.92 130.688C234.92 130.943 234.92 131.347 234.665 131.729V132.665C234.665 132.92 235.323 133.323 235.451 133.323H235.705V134.769H236.109V134.918ZM235.705 133.345V133.217H239.399C239.399 133.217 239.548 133.068 239.399 132.686C239.399 132.409 239.399 132.154 239.548 132.027C239.548 131.843 239.987 131.446 240.864 130.837V132.154C240.588 132.409 240.588 132.686 240.588 132.686C240.588 133.068 240.992 133.217 241.65 133.217H242.053V134.79H240.461C240.079 134.663 239.803 134.407 239.548 134.004L239.017 134.79H236.109V133.345H235.705ZM232.669 128.987C232.393 129.497 232.011 129.646 231.608 130.029L230.419 129.497H230.164C230.016 129.497 229.634 130.029 229.358 130.029C229.358 130.029 229.358 129.901 229.23 129.901C228.827 129.646 228.445 129.646 228.041 129.242C228.572 128.583 228.975 128.456 229.23 128.456C228.975 128.456 229.358 128.583 230.016 128.839L230.419 128.987C230.695 128.839 230.822 128.583 231.205 128.456L232.669 128.987ZM240.461 128.711C240.206 128.711 239.803 128.839 239.42 129.37H239.145C239.145 129.37 238.762 129.37 238.614 129.115C237.956 128.711 237.828 128.456 237.828 128.456C237.828 128.328 237.828 128.328 237.956 128.052C238.359 127.925 238.614 127.648 239.017 127.521C239.017 127.266 239.145 127.266 239.145 127.266C239.145 127.266 239.364 127.485 239.803 127.925C240.461 128.052 240.609 128.328 240.609 128.456C240.609 128.456 240.461 128.456 240.461 128.711Z" fill="#54B949"/>
<path fill-rule="evenodd" clip-rule="evenodd" d="M249.186 134.918C249.059 134.918 248.804 135.173 248.804 135.3C248.528 135.704 248.528 135.704 248.401 135.959L244.579 134.11C244.311 134.11 244.091 134.287 243.921 134.641C243.921 134.918 243.773 134.918 243.518 134.918H241.544V133.323H244.176C244.176 133.323 244.303 133.047 244.707 132.92L245.11 132.006C245.365 131.602 245.896 131.474 246.554 131.07C247.212 130.815 247.743 130.666 247.997 130.666C248.401 130.666 248.528 130.666 248.528 130.815V131.602C249.059 132.537 249.462 133.047 249.844 133.323H280.755C280.755 133.323 280.882 133.047 280.882 132.92L281.158 132.261C281.286 131.857 281.944 131.474 282.475 130.815C282.475 131.07 282.475 131.474 282.347 131.857C282.071 132.664 281.944 132.92 281.944 133.047C282.071 133.323 282.475 133.323 282.729 133.323H284.322C284.322 133.047 284.322 132.92 284.598 132.537C284.725 132.133 285.383 131.474 286.041 131.198L285.638 132.92V133.323H286.975V132.664C286.827 132.537 286.827 132.261 286.827 132.261C286.827 132.261 287.004 132.041 287.357 131.602C287.761 131.198 288.016 131.07 288.292 130.815V133.323C288.292 133.451 288.292 133.727 288.016 134.11C287.633 134.769 287.633 134.918 287.633 134.918C287.357 134.918 287.357 135.173 287.357 135.173L284.725 134.918C284.725 134.769 284.598 134.769 284.598 134.769C284.598 134.769 284.194 134.918 283.918 134.918H281.562C281.286 134.918 280.882 134.769 280.882 134.514C280.5 134.769 280.097 134.918 279.842 134.918H278.25V135.173H249.993V134.918H249.186ZM248.125 133.451C248.125 133.047 248.125 132.92 247.997 132.664C247.721 132.261 247.594 132.261 247.191 132.261C246.533 132.261 246.15 132.261 245.747 132.664L246.936 133.323C247.339 133.451 247.721 133.727 247.997 133.727C248.125 133.727 248.125 133.451 248.125 133.451ZM292.092 125.395C291.434 125.395 290.648 125.778 290.117 126.182H289.863V125.926C289.863 125.926 290.117 125.778 290.521 125.523L289.459 125.119C289.459 124.991 289.459 124.991 289.587 124.587C289.863 124.205 290.245 123.673 290.924 123.673C290.924 123.546 291.051 123.546 291.051 123.546C291.434 123.546 291.71 123.673 291.71 123.928C291.71 123.928 291.71 124.205 291.434 124.587C291.306 124.332 291.306 124.332 291.051 124.205H290.924C290.521 124.205 290.117 124.332 290.117 124.587C290.117 124.736 290.521 124.736 291.306 124.991C291.306 124.991 291.71 124.736 292.495 124.736C292.495 124.991 292.368 125.119 292.092 125.395ZM292.771 131.857C292.771 133.047 292.368 134.11 291.71 134.918L290.924 128.562C290.924 128.562 291.051 128.158 291.434 127.776C291.71 127.244 292.092 126.968 292.092 126.713L292.771 131.857ZM301.9 127.499C301.9 127.499 301.496 127.627 301.369 128.01C300.966 128.286 300.966 128.413 300.711 128.413C300.711 128.413 300.053 128.286 299.522 127.882C298.864 128.286 298.715 128.413 298.715 128.413C298.461 128.413 298.057 128.286 297.272 127.627L298.333 126.819C298.857 127.273 299.253 127.499 299.522 127.499C299.522 127.499 299.904 127.223 300.308 126.819L301.9 127.499ZM302.685 135.045C302.558 134.79 302.558 134.79 302.303 134.641C302.303 134.386 302.303 133.855 302.176 133.451C301.907 133.451 301.68 133.628 301.496 133.982C301.242 134.386 300.838 134.641 300.711 134.641L297.803 134.259V133.982C297.803 133.982 298.022 133.366 298.461 132.133C298.609 132.006 298.991 131.602 299.925 131.219C300.456 130.943 300.838 130.815 301.242 130.284L301.114 129.88C301.114 129.88 301.496 129.497 302.176 128.562C302.303 129.497 302.685 131.219 303.089 133.196C303.089 133.451 303.365 133.451 303.874 133.451H329.371L326.739 131.602L326.463 131.75C326.335 131.75 326.081 131.602 325.932 131.347C325.274 130.815 324.892 130.284 324.892 130.284C324.892 130.284 325.019 129.752 325.677 128.307L331.346 126.713C331.346 127.244 331.218 127.903 330.963 128.307L326.739 129.497C327.524 129.88 328.182 130.56 328.713 130.943C329.499 131.602 330.305 132.133 330.815 132.792C330.963 132.941 330.963 132.941 330.963 133.196L330.305 135.045H324.892V135.173H303.747V135.045H302.685ZM301.9 132.792V132.537C301.9 132.409 301.9 131.75 301.624 130.943C301.496 131.219 301.242 131.219 301.242 131.347C301.114 131.602 300.838 132.006 300.435 132.133L299.395 132.537C300.18 132.792 300.584 132.792 300.838 132.792H301.9ZM338.882 135.045C338.755 135.045 338.755 135.045 338.479 134.79C338.351 135.449 337.821 136.108 337.29 136.894C336.504 137.829 335.57 138.488 334.785 138.488C334.381 138.488 333.872 138.361 332.81 137.829C332.004 137.426 331.346 137.298 331.218 137.022V136.894H331.346C331.346 136.894 331.622 136.894 332.004 137.022C332.534 137.298 332.81 137.298 333.193 137.298C333.872 137.298 334.657 136.894 335.57 136.235C336.908 135.449 337.29 134.79 337.29 134.386C337.29 134.259 336.908 133.6 336.101 132.792L337.29 131.347C338.097 132.409 339.137 133.196 340.071 133.451H344.423C344.55 133.451 344.55 133.196 344.826 132.941V132.409C344.954 132.006 345.612 131.602 346.419 130.943C346.419 131.219 346.27 131.602 346.27 132.006C345.739 132.792 345.612 132.941 345.612 133.196C346.015 133.451 346.27 133.451 346.419 133.451H348.266C348.266 133.196 348.393 132.941 348.648 132.409C348.648 132.409 349.051 132.006 349.837 131.347L349.455 132.941V133.451H351.153C350.898 132.792 350.898 132.409 350.898 132.409C350.898 132.409 351.302 131.75 352.087 130.943V133.855C351.917 134.209 351.74 134.606 351.556 135.045H348.924L348.648 134.79L348.266 135.045H345.357C344.954 135.045 344.55 134.79 344.55 134.641C344.168 134.79 344.041 135.045 343.765 135.045H342.173V135.173H339.944V135.045H338.882ZM351.026 129.497C351.026 129.752 350.898 129.88 350.622 130.156L350.24 130.815C350.091 130.56 349.582 130.284 348.775 129.88C348.648 129.88 348.393 130.156 348.244 130.284C347.99 130.56 347.862 130.815 347.862 130.815C347.862 130.815 347.459 130.56 346.928 130.284C346.801 130.156 346.397 130.156 346.143 129.88C346.801 129.37 347.204 128.966 347.204 128.966C347.204 128.966 347.459 129.094 347.862 129.37C348.393 129.497 348.648 129.497 348.648 129.497C348.648 129.497 348.775 129.37 349.582 128.966L351.026 129.497ZM349.688 128.18C348.775 128.838 348.648 129.094 348.648 129.094C348.648 129.094 347.99 128.838 347.459 128.435C347.459 128.031 347.841 127.776 348.372 127.372L349.688 128.18ZM230.164 142.463L230.037 144.461H229.379V143.653C229.252 143.526 228.976 143.526 228.721 143.526C228.593 143.271 228.317 143.271 227.787 143.271C227.129 143.271 226.598 143.526 226.067 143.93C225.558 144.461 225.282 145.12 225.282 145.779C225.282 146.565 225.558 147.097 225.94 147.756C226.378 148.195 226.994 148.415 227.787 148.415H228.976C229.379 148.16 229.782 148.16 230.164 148.032V149.35C229.782 149.605 229.379 149.605 228.976 149.732C228.317 149.732 227.935 150.009 227.532 150.009C226.067 150.009 225.154 149.605 224.369 148.819C223.435 148.16 223.031 147.097 223.031 145.907C223.031 144.716 223.435 143.93 224.369 143.122C225.154 142.208 226.343 141.804 227.787 141.804C228.19 141.804 228.593 141.804 228.976 142.081C229.641 142.081 230.037 142.208 230.164 142.463ZM231.481 142.081H233.2V143.526H231.481V142.081ZM233.2 144.057V149.754H231.481V144.334L233.2 144.057ZM237.828 148.67L236.64 149.86C235.981 149.732 235.578 149.35 235.196 148.946C234.92 148.67 234.793 148.011 234.793 147.628V145.248H234.134V144.185H234.793V142.336L236.64 142.208V144.185H237.574V145.248H236.64V147.224C236.64 147.501 236.767 147.883 237.043 148.011C237.17 148.542 237.446 148.67 237.828 148.67ZM245.089 144.589L242.329 149.477C242.053 150.264 241.671 150.668 241.522 150.923C241.268 151.199 241.14 151.327 240.609 151.327H238.635C239.017 151.327 239.293 151.199 239.675 150.54C240.206 150.136 240.482 149.732 240.609 149.477L237.828 144.589L239.421 144.057L241.522 147.883L243.773 144.057L245.089 144.589ZM254.727 142.336L254.6 144.312H253.942V143.526C253.814 143.271 253.538 143.271 253.411 143.271C253.156 143.122 252.753 143.122 252.35 143.122C251.741 143.122 251.125 143.342 250.503 143.781C250.064 144.319 249.844 144.893 249.844 145.503C249.844 146.438 250.12 146.969 250.503 147.628C250.941 147.982 251.557 148.16 252.35 148.16H253.538C253.942 148.032 254.345 148.032 254.6 147.756V149.201C254.345 149.477 253.942 149.477 253.411 149.605C253.008 149.605 252.498 149.881 252.095 149.881C250.779 149.881 249.717 149.477 248.932 148.542C248.125 148.032 247.743 146.969 247.743 145.779C247.743 144.589 248.125 143.781 248.932 142.867C249.717 142.081 250.906 141.677 252.35 141.677C252.753 141.677 253.156 141.677 253.538 141.932C253.935 141.932 254.331 142.066 254.727 142.336Z" fill="#54B949"/>
<path fill-rule="evenodd" clip-rule="evenodd" d="M262.391 147.331H257.508C257.784 147.734 257.911 147.99 258.166 148.138C258.563 148.393 258.959 148.521 259.355 148.521C259.758 148.521 260.162 148.521 260.544 148.393C260.947 148.393 261.351 148.138 261.605 147.99V149.329C261.351 149.584 260.947 149.711 260.544 149.711C260.162 149.711 259.758 149.988 259.355 149.988C258.166 149.988 257.381 149.584 256.723 149.18C256.064 148.521 255.661 147.734 255.661 146.948C255.661 146.14 256.064 145.354 256.723 144.695C257.381 144.291 258.166 143.909 259.1 143.909C260.162 143.909 260.947 144.291 261.605 144.822C262.264 145.481 262.391 146.289 262.391 147.331ZM260.82 146.544C260.544 146.14 260.417 145.758 260.162 145.481C260.013 145.354 259.631 145.354 259.1 145.354C258.57 145.354 258.315 145.354 257.911 145.481C257.784 145.885 257.784 146.14 257.508 146.544H260.82ZM273.643 149.711H271.796V146.289C271.796 146.14 271.796 145.885 271.647 145.758C271.392 145.758 271.265 145.481 270.862 145.481C270.607 145.481 270.458 145.481 269.949 145.758C269.8 145.758 269.545 145.885 269.545 146.14V149.711H267.698V146.289C267.698 146.14 267.571 145.885 267.295 145.758C267.295 145.758 266.892 145.481 266.764 145.481C266.382 145.481 266.106 145.481 265.703 145.758C265.575 145.885 265.321 145.885 265.321 146.14V149.711H263.474V144.291L265.321 144.036V144.695L266.106 144.291C266.382 144.036 266.51 144.036 266.764 144.036C266.892 144.036 267.168 143.909 267.295 143.909C267.953 143.909 268.229 144.036 268.611 144.291C268.795 144.291 268.972 144.468 269.142 144.822L270.204 144.291C270.458 144.291 270.607 144.036 270.862 144.036C271.265 144.036 271.392 143.909 271.647 143.909C272.178 143.909 272.836 144.036 273.239 144.419C273.515 144.822 273.643 145.354 273.643 145.885V149.711ZM281.561 147.331H276.679C276.679 147.734 276.933 147.862 277.337 148.117C277.464 148.245 277.867 148.521 278.526 148.521C278.78 148.521 279.184 148.521 279.714 148.245C280.118 148.245 280.373 148.117 280.776 147.862V149.307C280.627 149.584 280.118 149.711 279.587 149.711C279.184 149.711 278.78 149.966 278.526 149.966C277.337 149.966 276.551 149.584 275.744 149.18C275.086 148.521 274.832 147.734 274.832 146.927C274.832 146.013 275.086 145.205 275.872 144.695C276.551 144.291 277.337 143.887 278.398 143.887C279.311 143.887 280.118 144.291 280.627 144.822C281.158 145.481 281.561 146.268 281.561 147.331ZM279.714 146.544C279.714 146.013 279.587 145.609 279.311 145.481C278.929 145.205 278.526 145.205 278.122 145.205C277.74 145.205 277.337 145.205 277.061 145.481C276.933 145.885 276.679 146.013 276.679 146.544H279.714ZM288.695 149.711H286.72V146.268C286.72 146.013 286.72 145.885 286.444 145.609C286.19 145.609 286.041 145.481 285.659 145.481C285.383 145.481 285.001 145.481 284.852 145.609C284.597 145.885 284.47 145.885 284.47 146.013V149.711H282.347V144.291L284.47 144.015V144.695L285.001 144.291C285.383 144.291 285.659 144.015 285.786 144.015C286.041 144.015 286.19 143.76 286.444 143.76C287.23 143.76 287.633 144.015 288.037 144.419C288.419 144.822 288.695 145.205 288.695 145.885V149.711ZM293.174 148.648L291.731 149.839C291.327 149.711 290.945 149.307 290.542 148.904C290.266 148.648 290.138 148.117 290.138 147.586V145.205H289.48V144.142H290.138V142.293L291.985 142.166V144.142H292.919V145.205H291.985V147.182C291.985 147.458 292.134 147.841 292.389 148.117C292.516 148.521 292.792 148.648 293.174 148.648ZM303.088 142.293L302.685 144.419H302.154V143.611C302.154 143.356 301.9 143.356 301.496 143.356C301.241 143.228 301.114 143.228 300.711 143.228C299.918 143.228 299.302 143.405 298.864 143.76C298.206 144.419 298.078 144.95 298.078 145.609C298.078 146.395 298.206 147.054 298.588 147.586C299.026 148.025 299.642 148.245 300.435 148.245H301.624C302.154 148.117 302.558 148.117 302.961 147.841V149.307C302.558 149.435 302.154 149.435 301.624 149.711C301.241 149.711 300.711 149.839 300.435 149.839C298.864 149.839 297.802 149.435 297.017 148.648C296.21 148.117 295.828 147.054 295.828 145.864C295.828 144.546 296.21 143.76 297.017 142.952C297.802 142.166 298.991 141.762 300.435 141.762C300.838 141.762 301.241 141.762 301.624 141.889C302.303 141.889 302.685 142.166 303.088 142.293ZM310.604 146.799C310.604 147.586 310.476 148.521 309.818 149.031C309.16 149.435 308.375 149.839 307.186 149.839C306.124 149.839 305.339 149.435 304.808 149.031C304.15 148.521 303.874 147.586 303.874 146.799C303.874 145.992 304.15 145.205 304.808 144.801C305.339 144.142 306.124 143.76 307.186 143.76C308.375 143.76 309.16 144.142 309.818 144.546C310.476 145.205 310.604 145.864 310.604 146.799ZM308.757 146.799C308.757 146.395 308.757 145.992 308.375 145.609C308.247 145.205 307.844 144.95 307.441 144.95C306.832 144.95 306.393 145.17 306.124 145.609C305.721 145.864 305.721 146.268 305.721 146.799C305.721 147.182 305.721 147.586 306.124 148.117C306.379 148.521 306.782 148.521 307.441 148.521C307.844 148.521 308.247 148.521 308.375 148.117C308.757 147.841 308.757 147.458 308.757 146.799ZM321.962 149.711H320.263V146.268C320.263 145.992 320.263 145.864 319.987 145.609C319.86 145.609 319.605 145.46 319.202 145.46C318.926 145.46 318.798 145.46 318.544 145.609C318.14 145.609 318.013 145.864 318.013 145.992V149.711H316.166V146.268C316.166 145.992 315.89 145.864 315.763 145.609C315.763 145.609 315.359 145.46 315.104 145.46C314.701 145.46 314.446 145.46 314.319 145.609C313.916 145.864 313.916 145.864 313.661 145.992V149.711H311.793V144.142L313.661 144.015V144.546L314.446 144.142C314.701 144.015 314.977 144.015 315.104 144.015C315.359 144.015 315.508 143.76 315.89 143.76C316.293 143.76 316.548 144.015 316.951 144.142C317.079 144.142 317.61 144.419 317.61 144.801L318.544 144.142C318.798 144.142 318.926 144.015 319.329 144.015C319.605 144.015 319.86 143.76 319.987 143.76C320.645 143.76 321.176 144.015 321.58 144.419C321.834 144.801 321.962 145.205 321.962 145.864V149.711ZM329.902 146.799C329.902 147.607 329.774 148.266 329.095 148.797C328.585 149.456 327.651 149.711 326.866 149.711H325.932C325.677 149.711 325.528 149.456 325.274 149.456V151.305H323.427V144.164L325.274 143.887V144.419L326.059 144.164C326.335 143.887 326.335 143.887 326.462 143.887C326.717 143.76 326.866 143.76 327.121 143.76C327.906 143.76 328.713 144.164 329.095 144.546C329.774 145.226 329.902 146.013 329.902 146.799ZM328.182 146.799C328.182 146.417 327.906 146.013 327.651 145.609C327.524 145.354 327.128 145.226 326.462 145.226H325.932C325.677 145.354 325.528 145.354 325.274 145.609V148.266C325.528 148.266 325.677 148.393 325.932 148.393H326.717C327.121 148.393 327.524 148.393 327.651 147.99C327.906 147.862 328.182 147.458 328.182 146.799ZM337.82 148.797L336.228 149.839C336.101 149.839 335.846 149.711 335.846 149.456C335.57 149.456 335.443 149.18 335.443 149.052L334.254 149.711H333.85C333.065 149.711 332.131 149.456 331.621 149.052C330.963 148.393 330.815 147.862 330.815 146.799C330.815 146.013 330.963 145.226 331.621 144.822C332.131 144.164 333.065 143.76 333.999 143.76C334.254 143.76 334.657 143.887 335.039 143.887C335.188 144.164 335.443 144.164 335.57 144.419L336.631 143.887L337.035 144.164V147.607C337.035 147.99 337.035 148.266 337.29 148.393C337.29 148.648 337.417 148.648 337.82 148.797ZM335.188 147.99V145.609C335.039 145.609 335.039 145.354 334.784 145.354C334.657 145.226 334.381 145.226 333.999 145.226C333.596 145.226 333.192 145.354 333.065 145.609C332.81 145.736 332.534 146.14 332.534 146.799C332.534 147.203 332.81 147.607 333.065 147.862C333.192 148.266 333.596 148.266 333.999 148.266H334.784C335.039 148.266 335.188 147.99 335.188 147.99ZM344.826 149.711H342.979V146.14C342.979 146.013 342.979 145.736 342.703 145.609C342.576 145.609 342.321 145.354 341.918 145.354C341.514 145.354 341.387 145.354 341.132 145.609C340.984 145.736 340.729 145.736 340.601 146.013V149.711H338.754V144.164L340.601 143.887V144.546L341.387 144.164C341.514 144.164 341.79 143.887 341.918 143.887C342.321 143.887 342.576 143.76 342.703 143.76C343.361 143.76 344.019 143.887 344.168 144.419C344.55 144.822 344.826 145.226 344.826 145.736V149.711ZM352.872 144.695L350.112 149.584C349.709 150.391 349.306 150.774 349.051 151.05C348.924 151.178 348.648 151.433 348.52 151.433H346.27C346.673 151.433 347.055 151.178 347.459 150.519C347.862 150.115 347.989 149.711 348.244 149.584L345.357 144.695L347.055 144.036L349.051 147.862L351.301 144.036L352.872 144.695Z" fill="#54B949"/>
</g>
</g>
<path d="M606.189 158.575V157.755L607.25 157.573V150.108L606.189 149.926V149.099H607.25H608.961L612.013 156.291H612.052L615.006 149.099H617.862V149.926L616.802 150.108V157.573L617.862 157.755V158.575H614.459V157.755L615.578 157.573V154.826V150.85L615.546 150.843L612.468 158.237H611.616L608.434 150.856L608.402 150.863L608.447 154.826V157.573L609.592 157.755V158.575H606.189ZM621.232 158.712C620.499 158.712 619.942 158.534 619.56 158.178C619.179 157.818 618.988 157.313 618.988 156.662C618.988 156.215 619.109 155.827 619.352 155.497C619.599 155.163 619.955 154.905 620.419 154.722C620.883 154.536 621.439 154.442 622.085 154.442H623.341V153.753C623.341 153.327 623.21 152.998 622.95 152.763C622.694 152.529 622.332 152.412 621.864 152.412C621.569 152.412 621.313 152.449 621.096 152.523C620.879 152.592 620.681 152.69 620.504 152.815L620.367 153.798H619.378V152.184C619.695 151.928 620.063 151.735 620.484 151.605C620.905 151.47 621.371 151.403 621.883 151.403C622.738 151.403 623.408 151.607 623.894 152.015C624.379 152.423 624.622 153.006 624.622 153.766V157.156C624.622 157.247 624.622 157.336 624.622 157.423C624.627 157.51 624.633 157.597 624.642 157.683L625.325 157.755V158.575H623.484C623.445 158.384 623.414 158.213 623.393 158.061C623.371 157.909 623.356 157.757 623.347 157.605C623.1 157.922 622.79 158.187 622.417 158.399C622.048 158.608 621.653 158.712 621.232 158.712ZM621.421 157.638C621.846 157.638 622.234 157.536 622.586 157.332C622.937 157.128 623.189 156.883 623.341 156.597V155.321H622.039C621.449 155.321 621.007 155.462 620.712 155.744C620.417 156.026 620.27 156.341 620.27 156.688C620.27 156.996 620.365 157.232 620.556 157.397C620.747 157.558 621.035 157.638 621.421 157.638ZM629.17 158.712C628.698 158.712 628.255 158.664 627.843 158.569C627.431 158.473 626.993 158.326 626.529 158.126L626.516 156.453H627.485L627.726 157.462C627.969 157.562 628.203 157.636 628.429 157.683C628.659 157.727 628.906 157.749 629.17 157.749C629.691 157.749 630.064 157.649 630.289 157.449C630.515 157.25 630.628 157.002 630.628 156.707C630.628 156.43 630.513 156.195 630.283 156.004C630.057 155.809 629.645 155.644 629.047 155.51C628.197 155.315 627.57 155.054 627.166 154.729C626.767 154.399 626.568 153.961 626.568 153.414C626.568 153.032 626.678 152.692 626.9 152.392C627.121 152.089 627.429 151.848 627.823 151.67C628.218 151.492 628.678 151.403 629.203 151.403C629.736 151.403 630.192 151.464 630.569 151.585C630.951 151.707 631.283 151.87 631.565 152.073L631.63 153.681H630.667L630.459 152.744C630.307 152.631 630.127 152.544 629.919 152.483C629.71 152.423 629.472 152.392 629.203 152.392C628.804 152.392 628.479 152.486 628.227 152.672C627.98 152.859 627.856 153.093 627.856 153.375C627.856 153.54 627.891 153.683 627.96 153.805C628.034 153.926 628.173 154.037 628.377 154.136C628.581 154.232 628.88 154.327 629.274 154.423C630.255 154.653 630.938 154.946 631.324 155.302C631.714 155.657 631.91 156.096 631.91 156.616C631.91 157.211 631.688 157.71 631.246 158.113C630.808 158.512 630.116 158.712 629.17 158.712ZM635.456 158.686C634.935 158.686 634.521 158.534 634.213 158.23C633.909 157.922 633.757 157.432 633.757 156.759V152.483H632.645V151.533H633.757V149.835H635.039V151.533H636.568V152.483H635.039V156.759C635.039 157.098 635.107 157.347 635.241 157.508C635.375 157.668 635.555 157.749 635.781 157.749C635.933 157.749 636.102 157.736 636.288 157.71C636.475 157.679 636.62 157.653 636.724 157.631L636.9 158.471C636.714 158.527 636.484 158.577 636.21 158.621C635.941 158.664 635.69 158.686 635.456 158.686ZM640.798 158.712C640.147 158.712 639.581 158.564 639.099 158.269C638.618 157.97 638.245 157.555 637.98 157.026C637.72 156.497 637.59 155.885 637.59 155.191V154.905C637.59 154.236 637.726 153.64 638 153.115C638.277 152.585 638.644 152.169 639.099 151.865C639.559 151.557 640.06 151.403 640.602 151.403C641.236 151.403 641.765 151.533 642.19 151.794C642.619 152.054 642.943 152.42 643.159 152.893C643.376 153.362 643.485 153.915 643.485 154.553V155.354H638.917L638.898 155.386C638.906 155.837 638.984 156.239 639.132 156.59C639.284 156.937 639.5 157.211 639.783 157.41C640.064 157.61 640.403 157.71 640.798 157.71C641.231 157.71 641.611 157.649 641.936 157.527C642.266 157.401 642.55 157.23 642.789 157.013L643.289 157.846C643.038 158.089 642.704 158.295 642.288 158.464C641.875 158.629 641.379 158.712 640.798 158.712ZM638.956 154.351H642.203V154.182C642.203 153.844 642.142 153.542 642.021 153.277C641.904 153.008 641.726 152.798 641.487 152.646C641.253 152.49 640.958 152.412 640.602 152.412C640.316 152.412 640.056 152.496 639.822 152.666C639.587 152.831 639.394 153.056 639.242 153.343C639.091 153.629 638.991 153.954 638.943 154.319L638.956 154.351ZM644.474 158.575V157.755L645.534 157.573V152.542L644.474 152.36V151.533H646.679L646.79 152.431L646.803 152.555C647.003 152.195 647.248 151.913 647.538 151.709C647.833 151.505 648.169 151.403 648.547 151.403C648.681 151.403 648.818 151.416 648.957 151.442C649.1 151.464 649.202 151.486 649.262 151.507L649.093 152.698L648.202 152.646C647.864 152.624 647.579 152.703 647.35 152.88C647.12 153.054 646.942 153.288 646.816 153.583V157.573L647.877 157.755V158.575H644.474ZM653.406 158.575V157.755L654.468 157.573V150.108L653.406 149.926V149.099H654.468H657.116C657.954 149.099 658.681 149.299 659.302 149.698C659.926 150.097 660.413 150.646 660.76 151.344C661.106 152.043 661.279 152.841 661.279 153.739V153.941C661.279 154.818 661.114 155.607 660.779 156.31C660.446 157.009 659.97 157.562 659.355 157.97C658.742 158.373 658.019 158.575 657.181 158.575H653.406ZM655.75 157.573H657.116C657.714 157.573 658.228 157.41 658.658 157.085C659.087 156.755 659.418 156.317 659.646 155.77C659.88 155.219 659.998 154.609 659.998 153.941V153.726C659.998 153.037 659.88 152.42 659.646 151.878C659.418 151.331 659.087 150.9 658.658 150.583C658.228 150.266 657.714 150.108 657.116 150.108H655.75V157.573ZM664.462 158.712C663.729 158.712 663.172 158.534 662.789 158.178C662.408 157.818 662.216 157.313 662.216 156.662C662.216 156.215 662.338 155.827 662.582 155.497C662.829 155.163 663.185 154.905 663.648 154.722C664.112 154.536 664.668 154.442 665.313 154.442H666.57V153.753C666.57 153.327 666.44 152.998 666.179 152.763C665.924 152.529 665.561 152.412 665.092 152.412C664.797 152.412 664.542 152.449 664.325 152.523C664.108 152.592 663.91 152.69 663.733 152.815L663.596 153.798H662.606V152.184C662.924 151.928 663.294 151.735 663.714 151.605C664.135 151.47 664.601 151.403 665.111 151.403C665.966 151.403 666.636 151.607 667.124 152.015C667.609 152.423 667.851 153.006 667.851 153.766V157.156C667.851 157.247 667.851 157.336 667.851 157.423C667.856 157.51 667.862 157.597 667.872 157.683L668.555 157.755V158.575H666.712C666.674 158.384 666.644 158.213 666.621 158.061C666.6 157.909 666.585 157.757 666.575 157.605C666.33 157.922 666.019 158.187 665.646 158.399C665.277 158.608 664.883 158.712 664.462 158.712ZM664.651 157.638C665.075 157.638 665.464 157.536 665.816 157.332C666.166 157.128 666.417 156.883 666.57 156.597V155.321H665.268C664.679 155.321 664.236 155.462 663.941 155.744C663.646 156.026 663.499 156.341 663.499 156.688C663.499 156.996 663.594 157.232 663.785 157.397C663.975 157.558 664.264 157.638 664.651 157.638ZM672.035 158.686C671.515 158.686 671.1 158.534 670.792 158.23C670.489 157.922 670.337 157.432 670.337 156.759V152.483H669.225V151.533H670.337V149.835H671.618V151.533H673.149V152.483H671.618V156.759C671.618 157.098 671.687 157.347 671.82 157.508C671.955 157.668 672.136 157.749 672.36 157.749C672.513 157.749 672.682 157.736 672.869 157.71C673.055 157.679 673.2 157.653 673.305 157.631L673.48 158.471C673.293 158.527 673.063 158.577 672.791 158.621C672.52 158.664 672.269 158.686 672.035 158.686ZM676.577 158.712C675.844 158.712 675.286 158.534 674.904 158.178C674.523 157.818 674.333 157.313 674.333 156.662C674.333 156.215 674.453 155.827 674.696 155.497C674.944 155.163 675.3 154.905 675.764 154.722C676.227 154.536 676.783 154.442 677.43 154.442H678.684V153.753C678.684 153.327 678.555 152.998 678.294 152.763C678.039 152.529 677.677 152.412 677.207 152.412C676.912 152.412 676.657 152.449 676.44 152.523C676.223 152.592 676.025 152.69 675.848 152.815L675.711 153.798H674.723V152.184C675.039 151.928 675.408 151.735 675.829 151.605C676.25 151.47 676.716 151.403 677.228 151.403C678.083 151.403 678.753 151.607 679.238 152.015C679.724 152.423 679.967 153.006 679.967 153.766V157.156C679.967 157.247 679.967 157.336 679.967 157.423C679.971 157.51 679.977 157.597 679.986 157.683L680.67 157.755V158.575H678.827C678.789 158.384 678.758 158.213 678.738 158.061C678.715 157.909 678.699 157.757 678.692 157.605C678.444 157.922 678.134 158.187 677.761 158.399C677.392 158.608 676.998 158.712 676.577 158.712ZM676.765 157.638C677.19 157.638 677.578 157.536 677.93 157.332C678.281 157.128 678.534 156.883 678.684 156.597V155.321H677.384C676.794 155.321 676.35 155.462 676.055 155.744C675.76 156.026 675.614 156.341 675.614 156.688C675.614 156.996 675.709 157.232 675.899 157.397C676.092 157.558 676.379 157.638 676.765 157.638ZM685.113 158.575V157.755L686.173 157.573V150.108L685.113 149.926V149.099H686.173H687.884L690.936 156.291H690.976L693.93 149.099H696.786V149.926L695.725 150.108V157.573L696.786 157.755V158.575H693.382V157.755L694.501 157.573V154.826V150.85L694.469 150.843L691.393 158.237H690.54L687.357 150.856L687.325 150.863L687.37 154.826V157.573L688.516 157.755V158.575H685.113ZM700.157 158.712C699.424 158.712 698.866 158.534 698.484 158.178C698.103 157.818 697.911 157.313 697.911 156.662C697.911 156.215 698.033 155.827 698.276 155.497C698.524 155.163 698.88 154.905 699.342 154.722C699.807 154.536 700.363 154.442 701.008 154.442H702.264V153.753C702.264 153.327 702.135 152.998 701.874 152.763C701.617 152.529 701.255 152.412 700.787 152.412C700.492 152.412 700.237 152.449 700.02 152.523C699.803 152.592 699.605 152.69 699.428 152.815L699.291 153.798H698.301V152.184C698.619 151.928 698.986 151.735 699.409 151.605C699.83 151.47 700.296 151.403 700.806 151.403C701.661 151.403 702.331 151.607 702.818 152.015C703.304 152.423 703.545 153.006 703.545 153.766V157.156C703.545 157.247 703.545 157.336 703.545 157.423C703.551 157.51 703.557 157.597 703.566 157.683L704.248 157.755V158.575H702.407C702.369 158.384 702.339 158.213 702.316 158.061C702.295 157.909 702.28 157.757 702.27 157.605C702.024 157.922 701.714 158.187 701.341 158.399C700.972 158.608 700.578 158.712 700.157 158.712ZM700.345 157.638C700.77 157.638 701.158 157.536 701.51 157.332C701.861 157.128 702.112 156.883 702.264 156.597V155.321H700.962C700.374 155.321 699.93 155.462 699.635 155.744C699.34 156.026 699.194 156.341 699.194 156.688C699.194 156.996 699.289 157.232 699.479 157.397C699.67 157.558 699.959 157.638 700.345 157.638ZM705.243 158.575V157.755L706.306 157.573V152.542L705.243 152.36V151.533H707.45L707.541 152.581C707.775 152.208 708.068 151.919 708.419 151.716C708.775 151.507 709.178 151.403 709.629 151.403C710.389 151.403 710.977 151.626 711.392 152.073C711.809 152.516 712.018 153.202 712.018 154.13V157.573L713.079 157.755V158.575H709.675V157.755L710.735 157.573V154.156C710.735 153.536 710.612 153.095 710.364 152.835C710.122 152.575 709.749 152.444 709.245 152.444C708.877 152.444 708.55 152.533 708.263 152.711C707.981 152.889 707.756 153.132 707.587 153.44V157.573L708.647 157.755V158.575H705.243ZM716.265 158.712C715.533 158.712 714.977 158.534 714.594 158.178C714.213 157.818 714.021 157.313 714.021 156.662C714.021 156.215 714.143 155.827 714.387 155.497C714.634 155.163 714.988 154.905 715.453 154.722C715.917 154.536 716.473 154.442 717.118 154.442H718.375V153.753C718.375 153.327 718.245 152.998 717.984 152.763C717.727 152.529 717.366 152.412 716.897 152.412C716.602 152.412 716.347 152.449 716.13 152.523C715.913 152.592 715.715 152.69 715.538 152.815L715.401 153.798H714.411V152.184C714.729 151.928 715.097 151.735 715.517 151.605C715.938 151.47 716.404 151.403 716.916 151.403C717.771 151.403 718.441 151.607 718.927 152.015C719.414 152.423 719.656 153.006 719.656 153.766V157.156C719.656 157.247 719.656 157.336 719.656 157.423C719.661 157.51 719.667 157.597 719.677 157.683L720.358 157.755V158.575H718.517C718.479 158.384 718.449 158.213 718.426 158.061C718.405 157.909 718.39 157.757 718.38 157.605C718.133 157.922 717.824 158.187 717.451 158.399C717.082 158.608 716.688 158.712 716.265 158.712ZM716.456 157.638C716.88 157.638 717.269 157.536 717.619 157.332C717.971 157.128 718.222 156.883 718.375 156.597V155.321H717.073C716.482 155.321 716.041 155.462 715.746 155.744C715.451 156.026 715.304 156.341 715.304 156.688C715.304 156.996 715.399 157.232 715.59 157.397C715.78 157.558 716.069 157.638 716.456 157.638ZM724.445 161.419C724.106 161.419 723.741 161.371 723.345 161.276C722.951 161.185 722.604 161.059 722.304 160.899L722.637 159.903C722.875 160.029 723.156 160.133 723.482 160.215C723.808 160.298 724.124 160.339 724.432 160.339C725.005 160.339 725.424 160.178 725.688 159.857C725.957 159.536 726.092 159.078 726.092 158.484V157.814C725.862 158.109 725.585 158.332 725.266 158.484C724.944 158.636 724.575 158.712 724.158 158.712C723.587 158.712 723.092 158.571 722.675 158.289C722.258 158.002 721.938 157.605 721.712 157.098C721.491 156.586 721.38 155.994 721.38 155.321V155.184C721.38 154.429 721.491 153.768 721.712 153.199C721.938 152.631 722.258 152.191 722.675 151.878C723.092 151.562 723.591 151.403 724.171 151.403C724.615 151.403 725.003 151.49 725.336 151.663C725.671 151.837 725.951 152.089 726.176 152.418L726.294 151.533H727.373V158.484C727.373 159.092 727.259 159.614 727.028 160.053C726.802 160.491 726.471 160.827 726.033 161.061C725.599 161.3 725.07 161.419 724.445 161.419ZM724.478 157.67C724.864 157.67 725.188 157.584 725.447 157.41C725.707 157.232 725.922 156.983 726.092 156.662V153.421C725.926 153.121 725.711 152.885 725.447 152.711C725.182 152.533 724.864 152.444 724.491 152.444C724.084 152.444 723.743 152.562 723.469 152.796C723.2 153.03 722.998 153.353 722.863 153.766C722.73 154.173 722.662 154.646 722.662 155.184V155.321C722.662 156.028 722.812 156.597 723.111 157.026C723.41 157.456 723.867 157.67 724.478 157.67ZM727.177 152.581L726.676 151.533H728.245V152.353L727.177 152.581ZM732.058 158.712C731.407 158.712 730.841 158.564 730.36 158.269C729.878 157.97 729.505 157.555 729.24 157.026C728.98 156.497 728.85 155.885 728.85 155.191V154.905C728.85 154.236 728.987 153.64 729.259 153.115C729.537 152.585 729.905 152.169 730.36 151.865C730.819 151.557 731.321 151.403 731.862 151.403C732.496 151.403 733.025 151.533 733.449 151.794C733.88 152.054 734.203 152.42 734.42 152.893C734.637 153.362 734.746 153.915 734.746 154.553V155.354H730.177L730.158 155.386C730.166 155.837 730.244 156.239 730.392 156.59C730.544 156.937 730.761 157.211 731.043 157.41C731.325 157.61 731.664 157.71 732.058 157.71C732.492 157.71 732.871 157.649 733.196 157.527C733.525 157.401 733.809 157.23 734.049 157.013L734.55 157.846C734.298 158.089 733.963 158.295 733.548 158.464C733.135 158.629 732.638 158.712 732.058 158.712ZM730.217 154.351H733.463V154.182C733.463 153.844 733.402 153.542 733.28 153.277C733.164 153.008 732.987 152.798 732.747 152.646C732.513 152.49 732.218 152.412 731.862 152.412C731.576 152.412 731.315 152.496 731.081 152.666C730.847 152.831 730.655 153.056 730.503 153.343C730.35 153.629 730.251 153.954 730.204 154.319L730.217 154.351ZM735.747 158.575V157.755L736.807 157.573V152.542L735.747 152.36V151.533H737.959L738.043 152.451C738.269 152.117 738.561 151.859 738.915 151.677C739.271 151.494 739.684 151.403 740.152 151.403C740.62 151.403 741.022 151.512 741.355 151.729C741.694 151.945 741.947 152.271 742.116 152.705C742.337 152.306 742.63 151.989 742.996 151.755C743.36 151.52 743.784 151.403 744.269 151.403C744.991 151.403 745.558 151.65 745.975 152.145C746.392 152.635 746.599 153.375 746.599 154.364V157.573L747.66 157.755V158.575H744.25V157.755L745.311 157.573V154.351C745.311 153.657 745.193 153.167 744.953 152.88C744.715 152.59 744.361 152.444 743.893 152.444C743.445 152.444 743.085 152.603 742.813 152.92C742.545 153.232 742.387 153.627 742.345 154.104V157.573L743.405 157.755V158.575H740.002V157.755L741.062 157.573V154.351C741.062 153.692 740.938 153.21 740.693 152.906C740.449 152.599 740.095 152.444 739.63 152.444C739.24 152.444 738.92 152.525 738.669 152.685C738.416 152.846 738.224 153.071 738.088 153.362V157.573L739.149 157.755V158.575H735.747ZM751.72 158.712C751.069 158.712 750.504 158.564 750.022 158.269C749.541 157.97 749.167 157.555 748.903 157.026C748.642 156.497 748.513 155.885 748.513 155.191V154.905C748.513 154.236 748.65 153.64 748.922 153.115C749.2 152.585 749.567 152.169 750.022 151.865C750.481 151.557 750.984 151.403 751.524 151.403C752.158 151.403 752.687 151.533 753.112 151.794C753.542 152.054 753.866 152.42 754.083 152.893C754.3 153.362 754.408 153.915 754.408 154.553V155.354H749.839L749.82 155.386C749.83 155.837 749.908 156.239 750.055 156.59C750.207 156.937 750.424 157.211 750.706 157.41C750.987 157.61 751.326 157.71 751.72 157.71C752.154 157.71 752.533 157.649 752.859 157.527C753.188 157.401 753.473 157.23 753.711 157.013L754.212 157.846C753.961 158.089 753.626 158.295 753.211 158.464C752.798 158.629 752.301 158.712 751.72 158.712ZM749.879 154.351H753.125V154.182C753.125 153.844 753.064 153.542 752.944 153.277C752.826 153.008 752.649 152.798 752.409 152.646C752.175 152.49 751.88 152.412 751.524 152.412C751.239 152.412 750.978 152.496 750.744 152.666C750.51 152.831 750.317 153.056 750.165 153.343C750.013 153.629 749.914 153.954 749.866 154.319L749.879 154.351ZM755.409 158.575V157.755L756.47 157.573V152.542L755.409 152.36V151.533H757.616L757.707 152.581C757.941 152.208 758.232 151.919 758.585 151.716C758.941 151.507 759.344 151.403 759.795 151.403C760.553 151.403 761.141 151.626 761.558 152.073C761.975 152.516 762.182 153.202 762.182 154.13V157.573L763.243 157.755V158.575H759.841V157.755L760.901 157.573V154.156C760.901 153.536 760.778 153.095 760.53 152.835C760.286 152.575 759.913 152.444 759.411 152.444C759.042 152.444 758.714 152.533 758.429 152.711C758.147 152.889 757.92 153.132 757.751 153.44V157.573L758.813 157.755V158.575H755.409ZM766.38 158.686C765.858 158.686 765.445 158.534 765.137 158.23C764.832 157.922 764.682 157.432 764.682 156.759V152.483H763.568V151.533H764.682V149.835H765.963V151.533H767.492V152.483H765.963V156.759C765.963 157.098 766.03 157.347 766.165 157.508C766.3 157.668 766.479 157.749 766.705 157.749C766.856 157.749 767.025 157.736 767.212 157.71C767.398 157.679 767.543 157.653 767.648 157.631L767.823 158.471C767.636 158.527 767.408 158.577 767.134 158.621C766.865 158.664 766.614 158.686 766.38 158.686Z" fill="#212179"/>
<path d="M487.544 118.675H463.216V134.612C463.216 135.212 462.702 135.726 462.017 135.726C461.417 135.726 460.903 135.212 460.903 134.612V97.5105C460.903 94.94 461.931 92.4551 463.73 90.6557L463.987 90.3987C465.786 88.7707 468.099 87.8281 470.583 87.8281H487.373C495.768 87.8281 502.792 94.8543 502.792 103.251C502.792 111.649 495.854 118.503 487.544 118.675ZM486.259 116.361H487.373C494.312 116.361 500.479 110.535 500.479 103.251C500.479 95.9682 494.312 90.1416 487.373 90.1416H470.583C468.956 90.1416 467.414 90.6557 466.129 91.5983V91.5126L465.358 92.2837C463.987 93.6547 463.216 95.5398 463.216 97.5105V116.361H486.259ZM511.832 90.6557L512.089 90.3987C513.888 88.7707 516.201 87.8281 518.685 87.8281H535.475C543.87 87.8281 550.894 94.8543 550.894 103.251C550.894 110.877 545.069 117.646 537.359 118.589L535.218 118.846L550.123 133.755C550.294 134.012 550.466 134.269 550.466 134.612C550.466 135.212 549.952 135.726 549.266 135.726C549.009 135.726 548.667 135.64 548.495 135.383L531.791 118.675H511.318V134.612C511.318 135.212 510.804 135.726 510.119 135.726C509.519 135.726 509.005 135.212 509.005 134.612V97.5105C509.005 94.94 510.033 92.4551 511.832 90.6557ZM534.361 116.361H535.475C542.413 116.361 548.581 110.535 548.581 103.251C548.581 95.9682 542.413 90.1416 535.475 90.1416H518.685C517.057 90.1416 515.515 90.6557 514.23 91.5983V91.5126L513.459 92.2837C512.089 93.6547 511.318 95.5398 511.318 97.5105V116.361H534.361ZM579.663 87.8281H589.086C600.051 87.8281 609.217 96.9964 609.217 107.964V115.59C609.217 126.643 599.88 135.726 589.086 135.726H579.663C568.613 135.726 559.532 126.558 559.532 115.59V107.964C559.532 96.9964 568.698 87.8281 579.663 87.8281ZM561.845 107.964V115.59C561.845 125.358 569.898 133.413 579.663 133.413H589.086C598.766 133.413 606.904 125.358 606.904 115.59V107.964C606.904 98.196 598.766 90.1416 589.086 90.1416H579.663C569.898 90.1416 561.845 98.196 561.845 107.964Z" fill="#F59316"/>
<path d="M487.545 118.675V119.627L487.565 119.626L487.545 118.675ZM463.217 118.675V117.723H462.265V118.675H463.217ZM463.988 90.3986L463.349 89.6925L463.332 89.7085L463.315 89.7253L463.988 90.3986ZM466.129 91.5982H465.178V93.477L466.692 92.3659L466.129 91.5982ZM466.129 91.5125H467.081V89.214L465.456 90.8392L466.129 91.5125ZM463.217 116.361H462.265V117.313H463.217V116.361ZM487.545 117.723H463.217V119.627L487.545 119.627V117.723ZM462.265 118.675V134.612H464.169V118.675H462.265ZM462.265 134.612C462.265 134.641 462.224 134.774 462.018 134.774V136.678C463.182 136.678 464.169 135.783 464.169 134.612H462.265ZM462.018 134.774C461.993 134.774 461.951 134.763 461.909 134.721C461.867 134.679 461.856 134.636 461.856 134.612H459.952C459.952 135.738 460.892 136.678 462.018 136.678V134.774ZM461.856 134.612V97.5104H459.952V134.612H461.856ZM461.856 97.5104C461.856 95.1908 462.785 92.9486 464.404 91.3289L463.058 89.9823C461.079 91.9615 459.952 94.6889 459.952 97.5104H461.856ZM464.404 91.3289L464.661 91.0719L463.315 89.7253L463.058 89.9823L464.404 91.3289ZM464.626 91.1046C466.258 89.6278 468.346 88.7801 470.584 88.7801V86.876C467.853 86.876 465.315 87.9133 463.349 89.6925L464.626 91.1046ZM470.584 88.7801H487.374V86.876H470.584V88.7801ZM487.374 88.7801C495.243 88.7801 501.841 95.3799 501.841 103.251H503.745C503.745 94.3285 496.294 86.876 487.374 86.876V88.7801ZM501.841 103.251C501.841 111.115 495.332 117.562 487.525 117.723L487.565 119.626C496.377 119.445 503.745 112.181 503.745 103.251H501.841ZM486.26 117.313H487.374V115.409H486.26V117.313ZM487.374 117.313C494.822 117.313 501.432 111.076 501.432 103.251H499.528C499.528 109.993 493.803 115.409 487.374 115.409V117.313ZM501.432 103.251C501.432 95.4262 494.822 89.1895 487.374 89.1895V91.0936C493.803 91.0936 499.528 96.51 499.528 103.251H501.432ZM487.374 89.1895H470.584V91.0936H487.374V89.1895ZM470.584 89.1895C468.752 89.1895 467.014 89.7691 465.567 90.8304L466.692 92.3659C467.815 91.5422 469.16 91.0936 470.584 91.0936V89.1895ZM467.081 91.5982V91.5125H465.178V91.5982H467.081ZM465.456 90.8392L464.685 91.6104L466.031 92.9569L466.802 92.1858L465.456 90.8392ZM464.685 91.6104C463.132 93.1637 462.265 95.2925 462.265 97.5104H464.169C464.169 95.7868 464.843 94.1455 466.031 92.9569L464.685 91.6104ZM462.265 97.5104V116.361H464.169V97.5104H462.265ZM463.217 117.313H486.26V115.409H463.217V117.313ZM512.089 90.3986L511.451 89.6925L511.433 89.7085L511.416 89.7253L512.089 90.3986ZM537.36 118.589L537.473 119.534L537.475 119.534L537.36 118.589ZM535.218 118.846L535.105 117.901L533.161 118.134L534.545 119.519L535.218 118.846ZM550.124 133.755L550.916 133.227L550.863 133.149L550.797 133.082L550.124 133.755ZM548.496 135.383L549.288 134.855L549.236 134.777L549.169 134.71L548.496 135.383ZM531.792 118.675L532.465 118.001L532.186 117.723H531.792V118.675ZM511.319 118.675V117.723H510.367V118.675H511.319ZM514.231 91.5982H513.279V93.477L514.794 92.3659L514.231 91.5982ZM514.231 91.5125H515.183V89.214L513.558 90.8392L514.231 91.5125ZM511.319 116.361H510.367V117.313H511.319V116.361ZM512.505 91.3289L512.762 91.0719L511.416 89.7253L511.159 89.9823L512.505 91.3289ZM512.728 91.1046C514.36 89.6278 516.448 88.7801 518.686 88.7801V86.876C515.955 86.876 513.417 87.9133 511.451 89.6925L512.728 91.1046ZM518.686 88.7801H535.475V86.876H518.686V88.7801ZM535.475 88.7801C543.345 88.7801 549.943 95.3799 549.943 103.251H551.846C551.846 94.3285 544.396 86.876 535.475 86.876V88.7801ZM549.943 103.251C549.943 110.405 544.468 116.761 537.244 117.644L537.475 119.534C545.671 118.532 551.846 111.349 551.846 103.251H549.943ZM537.247 117.644L535.105 117.901L535.332 119.791L537.473 119.534L537.247 117.644ZM534.545 119.519L549.451 134.428L550.797 133.082L535.891 118.173L534.545 119.519ZM549.332 134.283C549.425 134.423 549.467 134.49 549.495 134.551C549.516 134.595 549.515 134.609 549.515 134.612H551.418C551.418 133.94 551.066 133.453 550.916 133.227L549.332 134.283ZM549.515 134.612C549.515 134.641 549.473 134.774 549.267 134.774V136.678C550.431 136.678 551.418 135.783 551.418 134.612H549.515ZM549.267 134.774C549.254 134.774 549.238 134.773 549.222 134.77C549.205 134.767 549.195 134.764 549.191 134.762C549.188 134.761 549.197 134.764 549.215 134.777C549.235 134.791 549.262 134.817 549.288 134.855L547.704 135.911C548.139 136.564 548.891 136.678 549.267 136.678V134.774ZM549.169 134.71L532.465 118.001L531.119 119.348L547.823 136.056L549.169 134.71ZM531.792 117.723H511.319V119.627H531.792V117.723ZM510.367 118.675V134.612H512.27V118.675H510.367ZM510.367 134.612C510.367 134.641 510.325 134.774 510.119 134.774V136.678C511.283 136.678 512.27 135.783 512.27 134.612H510.367ZM510.119 134.774C510.095 134.774 510.052 134.763 510.011 134.721C509.969 134.679 509.957 134.636 509.957 134.612H508.054C508.054 135.738 508.994 136.678 510.119 136.678V134.774ZM509.957 134.612V97.5104H508.054V134.612H509.957ZM509.957 97.5104C509.957 95.1908 510.886 92.9486 512.505 91.3289L511.159 89.9823C509.181 91.9615 508.054 94.6889 508.054 97.5104H509.957ZM534.362 117.313H535.475V115.409H534.362V117.313ZM535.475 117.313C542.923 117.313 549.534 111.076 549.534 103.251H547.63C547.63 109.993 541.904 115.409 535.475 115.409V117.313ZM549.534 103.251C549.534 95.4262 542.923 89.1895 535.475 89.1895V91.0936C541.904 91.0936 547.63 96.51 547.63 103.251H549.534ZM535.475 89.1895H518.686V91.0936H535.475V89.1895ZM518.686 89.1895C516.854 89.1895 515.115 89.7691 513.668 90.8304L514.794 92.3659C515.917 91.5422 517.262 91.0936 518.686 91.0936V89.1895ZM515.183 91.5982V91.5125H513.279V91.5982H515.183ZM513.558 90.8392L512.787 91.6104L514.133 92.9569L514.904 92.1858L513.558 90.8392ZM512.787 91.6104C511.234 93.1637 510.367 95.2925 510.367 97.5104H512.27C512.27 95.7868 512.945 94.1455 514.133 92.9569L512.787 91.6104ZM510.367 97.5104V116.361H512.27V97.5104H510.367ZM511.319 117.313H534.362V115.409H511.319V117.313ZM579.664 88.7801H589.087V86.876H579.664V88.7801ZM589.087 88.7801C599.526 88.7801 608.266 97.522 608.266 107.964H610.169C610.169 96.4706 600.577 86.876 589.087 86.876V88.7801ZM608.266 107.964V115.59H610.169V107.964H608.266ZM608.266 115.59C608.266 126.11 599.362 134.774 589.087 134.774V136.678C600.398 136.678 610.169 127.177 610.169 115.59H608.266ZM589.087 134.774H579.664V136.678H589.087V134.774ZM579.664 134.774C569.142 134.774 560.485 126.034 560.485 115.59H558.581C558.581 127.081 568.085 136.678 579.664 136.678V134.774ZM560.485 115.59V107.964H558.581V115.59H560.485ZM560.485 107.964C560.485 97.522 569.225 88.7801 579.664 88.7801V86.876C568.173 86.876 558.581 96.4706 558.581 107.964H560.485ZM560.894 107.964V115.59H562.798V107.964H560.894ZM560.894 115.59C560.894 125.884 569.373 134.364 579.664 134.364V132.46C570.424 132.46 562.798 124.832 562.798 115.59H560.894ZM579.664 134.364H589.087V132.46H579.664V134.364ZM589.087 134.364C599.289 134.364 607.856 125.887 607.856 115.59H605.953C605.953 124.829 598.244 132.46 589.087 132.46V134.364ZM607.856 115.59V107.964H605.953V115.59H607.856ZM607.856 107.964C607.856 97.6671 599.289 89.1895 589.087 89.1895V91.0936C598.244 91.0936 605.953 98.7247 605.953 107.964H607.856ZM589.087 89.1895H579.664V91.0936H589.087V89.1895ZM579.664 89.1895C569.373 89.1895 560.894 97.6702 560.894 107.964H562.798C562.798 98.7216 570.424 91.0936 579.664 91.0936V89.1895Z" fill="#F59316"/>
<path d="M661.906 101.043V101.128C661.906 101.728 661.392 102.242 660.792 102.242C660.107 102.242 659.593 101.728 659.593 101.128C659.593 98.6434 658.651 96.3299 656.938 94.6162L656.081 93.9307C654.539 92.6455 652.569 91.96 650.513 91.96H630.896C628.84 91.96 626.87 92.6455 625.242 93.9307L624.471 94.6162C622.758 96.3299 621.816 98.6434 621.816 101.128C621.816 119.722 662.334 105.755 662.334 126.148C662.334 132.489 657.109 137.63 650.941 137.63H630.296C627.298 137.63 624.386 136.43 622.244 134.288L621.987 133.946C620.103 131.975 618.989 129.319 618.903 126.577V126.148C618.903 125.548 619.417 125.034 620.017 125.034C620.702 125.034 621.216 125.548 621.216 126.148C621.216 128.462 622.073 130.604 623.615 132.318L623.872 132.66C625.585 134.374 627.898 135.317 630.296 135.317H650.941C655.91 135.317 660.021 131.204 660.021 126.148C660.021 115.266 646.915 116.38 640.233 114.752C628.583 113.296 619.503 110.639 619.503 101.128C619.503 98.0436 620.702 95.216 622.844 92.9882L623.101 92.7311C625.242 90.7604 627.984 89.6465 630.896 89.6465H650.513C653.425 89.6465 656.167 90.7604 658.308 92.7311L658.565 92.9882C660.707 95.1303 661.906 98.0436 661.906 101.043ZM692.238 89.7322H701.661C712.626 89.7322 721.792 98.9005 721.792 109.868V117.494C721.792 128.547 712.455 137.63 701.661 137.63H692.238C681.188 137.63 672.107 128.462 672.107 117.494V109.868C672.107 98.9005 681.273 89.7322 692.238 89.7322ZM674.42 109.868V117.494C674.42 127.262 682.473 135.317 692.238 135.317H701.661C711.341 135.317 719.479 127.262 719.479 117.494V109.868C719.479 100.1 711.341 92.0457 701.661 92.0457H692.238C682.473 92.0457 674.42 100.1 674.42 109.868ZM758.587 135.317H759.7C760.3 135.317 760.814 135.831 760.814 136.516C760.814 137.116 760.3 137.63 759.7 137.63H745.566C737.514 137.63 730.918 131.032 730.918 122.978V90.8461C730.918 90.2463 731.432 89.7322 732.031 89.7322C732.717 89.7322 733.231 90.2463 733.231 90.8461V122.978C733.231 129.747 738.799 135.317 745.566 135.317H758.587Z" fill="#212179"/>
<path d="M656.938 94.6161L657.612 93.9428L657.574 93.9057L657.532 93.8728L656.938 94.6161ZM656.082 93.9306L655.472 94.6622L655.488 94.674L656.082 93.9306ZM625.243 93.9306L624.653 93.1835L624.631 93.2006L624.611 93.2191L625.243 93.9306ZM624.472 94.6161L623.84 93.9046L623.819 93.9232L623.799 93.9428L624.472 94.6161ZM622.245 134.288L621.483 134.859L621.524 134.914L621.572 134.962L622.245 134.288ZM621.988 133.945L622.749 133.374L622.715 133.329L622.676 133.287L621.988 133.945ZM618.904 126.577H617.952V126.591L617.953 126.606L618.904 126.577ZM623.615 132.317L624.377 131.746L624.351 131.712L624.323 131.681L623.615 132.317ZM623.872 132.66L623.111 133.231L623.151 133.286L623.199 133.334L623.872 132.66ZM640.234 114.752L640.459 113.827L640.406 113.814L640.352 113.807L640.234 114.752ZM622.844 92.9881L622.171 92.3148L622.158 92.3281L622.844 92.9881ZM623.101 92.731L622.457 92.0303L622.442 92.0439L622.428 92.0578L623.101 92.731ZM658.309 92.731L658.983 92.0578L658.967 92.0439L658.954 92.0303L658.309 92.731ZM660.955 101.042V101.128H662.858V101.042H660.955ZM660.955 101.128C660.955 101.153 660.943 101.195 660.901 101.237C660.86 101.279 660.818 101.29 660.793 101.29V103.194C661.918 103.194 662.858 102.254 662.858 101.128H660.955ZM660.793 101.29C660.587 101.29 660.546 101.157 660.546 101.128H658.642C658.642 102.299 659.628 103.194 660.793 103.194V101.29ZM660.546 101.128C660.546 98.3984 659.508 95.8405 657.612 93.9428L656.264 95.2894C657.795 96.8192 658.642 98.8882 658.642 101.128H660.546ZM657.532 93.8728L656.675 93.1873L655.488 94.674L656.344 95.3595L657.532 93.8728ZM656.691 93.1993C654.97 91.764 652.781 91.0078 650.513 91.0078V92.9119C652.358 92.9119 654.109 93.527 655.472 94.6622L656.691 93.1993ZM650.513 91.0078H630.897V92.9119H650.513V91.0078ZM630.897 91.0078C628.625 91.0078 626.448 91.7662 624.653 93.1835L625.833 94.6778C627.293 93.5245 629.056 92.9119 630.897 92.9119V91.0078ZM624.611 93.2191L623.84 93.9046L625.104 95.3277L625.875 94.6422L624.611 93.2191ZM623.799 93.9428C621.902 95.8405 620.865 98.3984 620.865 101.128H622.768C622.768 98.8882 623.616 96.8192 625.145 95.2894L623.799 93.9428ZM620.865 101.128C620.865 103.639 621.553 105.664 622.804 107.286C624.043 108.894 625.781 110.038 627.773 110.889C631.718 112.576 636.936 113.223 641.947 113.907C647.049 114.603 651.951 115.337 655.587 117.106C657.386 117.981 658.821 119.087 659.811 120.521C660.795 121.948 661.383 123.766 661.383 126.148H663.287C663.287 123.433 662.609 121.226 661.377 119.44C660.151 117.663 658.421 116.368 656.42 115.394C652.459 113.466 647.232 112.706 642.204 112.02C637.086 111.322 632.174 110.7 628.522 109.139C626.715 108.366 625.288 107.391 624.311 106.124C623.346 104.871 622.768 103.266 622.768 101.128H620.865ZM661.383 126.148C661.383 131.963 656.584 136.678 650.942 136.678V138.582C657.635 138.582 663.287 133.015 663.287 126.148H661.383ZM650.942 136.678H630.297V138.582H650.942V136.678ZM630.297 136.678C627.551 136.678 624.881 135.578 622.918 133.615L621.572 134.962C623.892 137.282 627.047 138.582 630.297 138.582V136.678ZM623.006 133.717L622.749 133.374L621.226 134.517L621.483 134.859L623.006 133.717ZM622.676 133.287C620.954 131.487 619.934 129.055 619.855 126.547L617.953 126.606C618.046 129.582 619.253 132.463 621.3 134.604L622.676 133.287ZM619.856 126.577V126.148H617.952V126.577H619.856ZM619.856 126.148C619.856 126.124 619.867 126.081 619.909 126.039C619.951 125.998 619.993 125.986 620.018 125.986V124.082C618.892 124.082 617.952 125.023 617.952 126.148H619.856ZM620.018 125.986C620.224 125.986 620.265 126.12 620.265 126.148H622.169C622.169 124.977 621.182 124.082 620.018 124.082V125.986ZM620.265 126.148C620.265 128.706 621.215 131.073 622.908 132.954L624.323 131.681C622.932 130.135 622.169 128.217 622.169 126.148H620.265ZM622.854 132.889L623.111 133.231L624.634 132.089L624.377 131.746L622.854 132.889ZM623.199 133.334C625.093 135.228 627.649 136.269 630.297 136.269V134.364C628.148 134.364 626.078 133.52 624.546 131.987L623.199 133.334ZM630.297 136.269H650.942V134.364H630.297V136.269ZM650.942 136.269C656.441 136.269 660.974 131.724 660.974 126.148H659.07C659.07 130.684 655.379 134.364 650.942 134.364V136.269ZM660.974 126.148C660.974 123.218 660.083 121.008 658.571 119.362C657.079 117.738 655.055 116.74 652.918 116.071C650.778 115.403 648.443 115.041 646.273 114.746C644.065 114.446 642.067 114.219 640.459 113.827L640.009 115.677C641.742 116.099 643.888 116.344 646.017 116.633C648.182 116.927 650.376 117.272 652.35 117.889C654.323 118.505 655.994 119.37 657.169 120.65C658.322 121.905 659.07 123.638 659.07 126.148H660.974ZM640.352 113.807C634.531 113.08 629.51 112.066 625.956 110.125C624.196 109.164 622.832 107.994 621.905 106.55C620.982 105.113 620.455 103.347 620.455 101.128H618.552C618.552 103.665 619.16 105.798 620.303 107.579C621.443 109.354 623.078 110.722 625.044 111.796C628.943 113.925 634.287 114.968 640.116 115.697L640.352 113.807ZM620.455 101.128C620.455 98.3027 621.55 95.7081 623.53 93.6481L622.158 92.3281C619.856 94.7237 618.552 97.7844 618.552 101.128H620.455ZM623.518 93.6614L623.775 93.4041L622.428 92.0578L622.171 92.3148L623.518 93.6614ZM623.746 93.4318C625.719 91.6158 628.233 90.5984 630.897 90.5984V88.6943C627.736 88.6943 624.767 89.9048 622.457 92.0303L623.746 93.4318ZM630.897 90.5984H650.513V88.6943H630.897V90.5984ZM650.513 90.5984C653.177 90.5984 655.691 91.6158 657.663 93.4318L658.954 92.0303C656.643 89.9048 653.675 88.6943 650.513 88.6943V90.5984ZM657.635 93.4043L657.892 93.6614L659.24 92.3148L658.983 92.0578L657.635 93.4043ZM657.892 93.6614C659.856 95.6247 660.955 98.2958 660.955 101.042H662.858C662.858 97.7912 661.558 94.6357 659.24 92.3148L657.892 93.6614ZM692.239 90.6841H701.662V88.78H692.239V90.6841ZM701.662 90.6841C712.101 90.6841 720.841 99.4261 720.841 109.868H722.744C722.744 98.3746 713.152 88.78 701.662 88.78V90.6841ZM720.841 109.868V117.494H722.744V109.868H720.841ZM720.841 117.494C720.841 128.014 711.937 136.678 701.662 136.678V138.582C712.973 138.582 722.744 129.081 722.744 117.494H720.841ZM701.662 136.678H692.239V138.582H701.662V136.678ZM692.239 136.678C681.718 136.678 673.06 127.938 673.06 117.494H671.156C671.156 128.985 680.661 138.582 692.239 138.582V136.678ZM673.06 117.494V109.868H671.156V117.494H673.06ZM673.06 109.868C673.06 99.4261 681.799 90.6841 692.239 90.6841V88.78C680.749 88.78 671.156 98.3746 671.156 109.868H673.06ZM673.469 109.868V117.494H675.373V109.868H673.469ZM673.469 117.494C673.469 127.788 681.948 136.269 692.239 136.269V134.364C682.999 134.364 675.373 126.736 675.373 117.494H673.469ZM692.239 136.269H701.662V134.364H692.239V136.269ZM701.662 136.269C711.865 136.269 720.431 127.791 720.431 117.494H718.528C718.528 126.733 710.82 134.364 701.662 134.364V136.269ZM720.431 117.494V109.868H718.528V117.494H720.431ZM720.431 109.868C720.431 99.5712 711.865 91.0935 701.662 91.0935V92.9976C710.82 92.9976 718.528 100.629 718.528 109.868H720.431ZM701.662 91.0935H692.239V92.9976H701.662V91.0935ZM692.239 91.0935C681.948 91.0935 673.469 99.5742 673.469 109.868H675.373C675.373 100.626 682.999 92.9976 692.239 92.9976V91.0935ZM758.587 136.269H759.701V134.364H758.587V136.269ZM759.701 136.269C759.73 136.269 759.863 136.31 759.863 136.516H761.766C761.766 135.351 760.872 134.364 759.701 134.364V136.269ZM759.863 136.516C759.863 136.54 759.851 136.583 759.81 136.625C759.768 136.667 759.726 136.678 759.701 136.678V138.582C760.826 138.582 761.766 137.642 761.766 136.516H759.863ZM759.701 136.678H745.567V138.582H759.701V136.678ZM745.567 136.678C738.04 136.678 731.87 130.506 731.87 122.978H729.967C729.967 131.558 736.989 138.582 745.567 138.582V136.678ZM731.87 122.978V90.846H729.967V122.978H731.87ZM731.87 90.846C731.87 90.8216 731.882 90.7791 731.923 90.7373C731.965 90.6954 732.007 90.6841 732.032 90.6841V88.78C730.907 88.78 729.967 89.7205 729.967 90.846H731.87ZM732.032 90.6841C732.238 90.6841 732.279 90.8174 732.279 90.846H734.183C734.183 89.675 733.195 88.78 732.032 88.78V90.6841ZM732.279 90.846V122.978H734.183V90.846H732.279ZM732.279 122.978C732.279 130.273 738.274 136.269 745.567 136.269V134.364C739.325 134.364 734.183 129.221 734.183 122.978H732.279ZM745.567 136.269H758.587V134.364H745.567V136.269Z" fill="#212179"/>
<path d="M738 84C746.284 84 753 77.2843 753 69C753 60.7157 746.284 54 738 54C729.716 54 723 60.7157 723 69C723 77.2843 729.716 84 738 84Z" stroke="#212179"/>
<path d="M773 42.5C773 46.7269 769.552 50 765.5 50C761.448 50 758 46.7269 758 42.5C758 38.2731 761.448 35 765.5 35C769.552 35 773 38.2731 773 42.5Z" stroke="#212179"/>
<path d="M771 104.5C771 108.552 767.727 112 763.5 112C759.273 112 756 108.552 756 104.5C756 100.448 759.273 97 763.5 97C767.727 97 771 100.448 771 104.5Z" stroke="#212179"/>
<path d="M684.5 47C688.642 47 692 43.6421 692 39.5C692 35.3579 688.642 32 684.5 32C680.358 32 677 35.3579 677 39.5C677 43.6421 680.358 47 684.5 47Z" stroke="#212179"/>
<path d="M691 44L725.53 61.0507" stroke="#212179"/>
<path d="M747.765 80.5337L759.46 98.1345" stroke="#212179"/>
<path d="M727.629 81.1309L715.376 94.688" stroke="#212179"/>
<path d="M749.702 58.5396L760.109 47.8057" stroke="#212179"/>
<defs>
<clipPath id="clip0_236_26">
<rect width="328" height="149" fill="white" transform="translate(25 31)"/>
</clipPath>
</defs>
</svg>
