<svg width="100" height="100" viewBox="0 0 100 100" fill="none" xmlns="http://www.w3.org/2000/svg">
<g clip-path="url(#clip0_450_2)">
<path d="M43.9236 1.37695e-06C43.4082 0.00027431 42.9098 0.183558 42.517 0.517171C42.1243 0.850784 41.8628 1.31304 41.7792 1.8215L39.6645 14.7673C37.1218 15.507 34.6971 16.5049 32.4119 17.748L21.7282 10.118C21.31 9.81937 20.7994 9.67853 20.2871 9.72051C19.7749 9.76248 19.294 9.98455 18.9299 10.3473L10.4713 18.7967C10.1099 19.1584 9.88746 19.6359 9.8432 20.1453C9.79893 20.6547 9.93564 21.1634 10.2293 21.582L17.7452 32.3327C16.4829 34.631 15.4627 37.0692 14.7049 39.6357L1.81317 41.7799C1.30621 41.8653 0.845914 42.1275 0.513978 42.52C0.182041 42.9126 -5.82587e-05 43.41 3.58273e-06 43.9241V55.8806C-0.000923693 56.3916 0.178173 56.8866 0.505857 57.2787C0.833542 57.6708 1.28887 57.9349 1.79194 58.0248L14.6921 60.3091C15.4459 62.8712 16.4596 65.311 17.724 67.6121L10.1147 78.2566C9.81596 78.6749 9.67511 79.1854 9.71709 79.6976C9.75906 80.2098 9.98116 80.6906 10.344 81.0547L18.7983 89.5126C19.1592 89.8736 19.6357 90.0961 20.1442 90.1411C20.6527 90.1861 21.1609 90.0508 21.5796 89.7588L32.3524 82.2181C34.6443 83.4684 37.075 84.4738 39.6263 85.2199L41.7792 98.1827C41.8637 98.6904 42.1256 99.1517 42.5182 99.4845C42.9109 99.8172 43.4089 99.9999 43.9236 100H55.8811C56.3927 100.001 56.8883 99.8211 57.2805 99.4926C57.6727 99.1641 57.9365 98.7078 58.0255 98.204L60.3312 85.1902C62.872 84.4326 65.2912 83.4124 67.5711 82.1544L78.4161 89.7631C78.8348 90.0567 79.3435 90.1934 79.853 90.1491C80.3624 90.1049 80.84 89.8825 81.2017 89.5211L89.656 81.0589C90.0204 80.6938 90.2431 80.2111 90.2843 79.697C90.3255 79.1829 90.1826 78.6709 89.8811 78.2524L82.1486 67.5187C83.385 65.2499 84.381 62.8454 85.121 60.3218L98.2038 58.029C98.7077 57.9401 99.164 57.6763 99.4925 57.2841C99.821 56.8919 100.001 56.3964 100 55.8848V43.9283C99.9997 43.413 99.8164 42.9146 99.4828 42.5219C99.1491 42.1292 98.6868 41.8677 98.1783 41.7841L85.1168 39.6484C84.3718 37.1279 83.373 34.7277 82.1359 32.4601L89.7622 21.5948C90.0559 21.1762 90.1926 20.6675 90.1483 20.158C90.104 19.6486 89.8816 19.1711 89.5202 18.8094L81.0616 10.3558C80.6964 9.9915 80.2137 9.76884 79.6995 9.72762C79.1854 9.6864 78.6733 9.82929 78.2548 10.1308L67.5499 17.8286C65.2691 16.5757 62.8483 15.5609 60.3015 14.8098L58.0255 1.80027C57.9374 1.2957 57.674 0.838419 57.2817 0.509063C56.8894 0.179708 56.3934 -0.000574829 55.8811 1.37695e-06H43.9236ZM45.7749 4.34783H54.0552L56.2208 16.7077C56.2929 17.1223 56.4837 17.507 56.7701 17.8152C57.0565 18.1235 57.4262 18.342 57.8344 18.4443C61.014 19.2366 64.0003 20.4925 66.7261 22.1425C67.0905 22.3633 67.5118 22.4721 67.9376 22.4555C68.3634 22.4389 68.7749 22.2976 69.121 22.0491L79.2951 14.7376L85.1507 20.5927L77.9066 30.9146C77.6646 31.2589 77.5278 31.666 77.5127 32.0866C77.4977 32.5071 77.605 32.923 77.8217 33.2838C79.4555 36.0032 80.6946 38.9704 81.4862 42.1323C81.5893 42.5441 81.8107 42.9167 82.1231 43.2042C82.4355 43.4917 82.8252 43.6814 83.2442 43.75L95.6518 45.7796V54.0591L83.2187 56.2415C82.8038 56.3149 82.4192 56.5073 82.1116 56.7953C81.804 57.0832 81.5868 57.4543 81.4862 57.8634C80.7038 61.0213 79.4639 63.9884 77.8301 66.7077C77.6108 67.072 77.5032 67.4927 77.5206 67.9176C77.5379 68.3425 77.6795 68.7529 77.9278 69.0982L85.2739 79.2926L79.4183 85.152L69.1125 77.9212C68.7665 77.6788 68.3573 77.5425 67.9349 77.5289C67.5126 77.5154 67.0955 77.6251 66.7346 77.8448C64.0224 79.4947 61.033 80.7566 57.8641 81.56C57.4579 81.6623 57.0899 81.8799 56.8044 82.1865C56.5189 82.4931 56.328 82.8756 56.2548 83.288L54.0594 95.6522H45.7665L43.7197 83.3432C43.6501 82.9245 43.4594 82.5354 43.1711 82.2238C42.8829 81.9121 42.5097 81.6917 42.0977 81.5897C38.9161 80.8056 35.9164 79.5515 33.172 77.9042C32.8117 77.6884 32.3965 77.5816 31.9768 77.5967C31.5571 77.6118 31.1507 77.7481 30.8068 77.9891L20.5817 85.152L14.7219 79.2841L21.949 69.1831C22.196 68.837 22.3361 68.4261 22.352 68.0012C22.3678 67.5763 22.2587 67.1561 22.0382 66.7926C20.3728 64.041 19.1133 61.0418 18.3185 57.8465C18.2168 57.4395 17.9995 57.0706 17.6929 56.7843C17.3862 56.498 17.0033 56.3066 16.5902 56.233L4.3482 54.0591V45.7668L16.5817 43.733C16.9999 43.6637 17.3888 43.4736 17.7003 43.1862C18.0119 42.8988 18.2327 42.5265 18.3355 42.1153C19.1371 38.909 20.396 35.9103 22.0552 33.1649C22.274 32.8045 22.3833 32.3882 22.3697 31.9668C22.3561 31.5454 22.2203 31.137 21.9788 30.7914L14.8365 20.5842L20.7006 14.7249L30.8365 21.9684C31.1813 22.2143 31.5905 22.3541 32.0137 22.3707C32.4368 22.3873 32.8557 22.2799 33.2187 22.0618C35.9486 20.4224 38.9553 19.1784 42.1401 18.3976C42.5541 18.2957 42.929 18.0743 43.2182 17.761C43.5073 17.4477 43.698 17.0563 43.7665 16.6355L45.7749 4.34783ZM50 32.6087C40.42 32.6087 32.6072 40.4208 32.6072 50C32.6072 59.5792 40.42 67.3913 50 67.3913C59.58 67.3913 67.3928 59.5792 67.3928 50C67.3928 40.4208 59.58 32.6087 50 32.6087ZM50 36.9565C57.2301 36.9565 63.0446 42.7705 63.0446 50C63.0446 57.2295 57.2301 63.0435 50 63.0435C42.7699 63.0435 36.9554 57.2295 36.9554 50C36.9554 42.7705 42.7699 36.9565 50 36.9565Z" fill="white"/>
</g>
<defs>
<clipPath id="clip0_450_2">
<rect width="100" height="100" fill="white"/>
</clipPath>
</defs>
</svg>
